<?xml version="1.0" encoding="UTF-8" standalone="no"?>
<svg width="11px" height="12px" viewBox="0 0 11 12" version="1.1" xmlns="http://www.w3.org/2000/svg" xmlns:xlink="http://www.w3.org/1999/xlink">
    <!-- Generator: Sketch 39.1 (31720) - http://www.bohemiancoding.com/sketch -->
    <title>删除样式</title>
    <desc>Created with Sketch.</desc>
    <defs></defs>
    <g id="资讯" stroke="none" stroke-width="1" fill="none" fill-rule="evenodd">
        <g id="1.1.1.2长文章编辑器-样式" transform="translate(-1326.000000, -153.000000)" fill="#2976A4">
            <g id="编辑内容" transform="translate(150.000000, 80.000000)">
                <g id="2" transform="translate(1140.000000, 39.000000)">
                    <g id="功能" transform="translate(20.000000, 20.000000)">
                        <g id="删除样式">
                            <path d="M23.8840118,23.7970485 C23.8840118,23.9886277 23.858902,24.1277333 23.8085655,24.2143822 C23.7582958,24.3011146 23.6577398,24.344439 23.5068138,24.344439 C23.2301718,24.344439 23.0918342,24.1619588 23.0918342,23.7970485 L23.0918342,17.4755712 L23.8840118,17.4755712 L23.8840118,23.7970485 Z M21.5075122,23.8244623 C21.5075122,24.0160414 21.4823523,24.1551638 21.4320659,24.241796 C21.3817294,24.3284281 21.2853138,24.3718027 21.1428524,24.3718027 C20.8662104,24.3718027 20.7278727,24.1893726 20.7278727,23.8244623 L20.7278727,17.4755712 L21.5074955,17.4755712 L21.5074955,23.8244623 L21.5075122,23.8244623 Z M19.1686773,23.8244623 C19.1686773,24.1984882 19.0345302,24.3854595 18.7663194,24.3854595 C18.6238078,24.3854595 18.5253053,24.3398812 18.4708284,24.2486411 C18.4163347,24.1574511 18.3891213,24.0160414 18.3891213,23.8244623 L18.3891213,17.4755712 L19.1686773,17.4755712 L19.1686773,23.8244623 Z M19.1561725,15.7240954 L23.0918342,15.7240954 L23.0918342,14.8620811 L19.1561725,14.8620811 L19.1561725,15.7240954 Z M26.0279786,16.2029849 C25.9315463,16.0661665 25.8015897,15.9521372 25.6381589,15.8608804 C25.4746613,15.7696904 25.2671882,15.7240787 25.0157062,15.7240787 L24.4373124,15.7240787 C24.2361168,15.7240787 24.0474927,15.7195209 23.8714569,15.7103718 L23.8714569,14.8620644 C23.8714569,14.6248569 23.8149098,14.4218748 23.7017487,14.2531516 C23.5885375,14.084395 23.3852883,14 23.0918509,14 L19.1561725,14 C18.9381145,14 18.7537478,14.084395 18.6028218,14.2531516 C18.4519459,14.4218748 18.3764996,14.6248569 18.3764996,14.8620644 L18.3764996,15.6967651 L17.2574103,15.6967651 C17.0394191,15.6967651 16.8508785,15.7377856 16.6915548,15.8198766 C16.5323145,15.901951 16.4023579,16.0045439 16.3017685,16.1277389 C16.2011623,16.2508504 16.1257327,16.3853982 16.0753795,16.5313657 C16.0251098,16.6773164 16,16.8096271 16,16.9281641 C16,17.1653215 16.0041738,17.3067311 16.0125549,17.3523428 C16.0125549,17.3888055 16.0167955,17.411628 16.0251098,17.4207771 L16.8047326,17.4207771 L16.8047326,24.4675171 C16.8047326,24.7047079 16.844551,24.9168057 16.9241711,25.1038437 C17.0037912,25.2908149 17.1128286,25.4504892 17.2511328,25.5827331 C17.3894705,25.7149937 17.5550383,25.8175866 17.7477861,25.8906121 C17.9406174,25.9635374 18.1459535,26 18.3638946,26 L23.9719963,26 C24.2067497,26 24.4142228,25.9612835 24.5944491,25.883767 C24.7746754,25.806167 24.927705,25.703524 25.0534209,25.575888 C25.179187,25.4481686 25.2756027,25.2999306 25.3426178,25.1311406 C25.409683,24.9624341 25.443224,24.7867489 25.443224,24.6043355 L25.443224,17.4207938 L26.2731165,17.4207938 L26.2731165,17.3387027 C26.2731165,17.3113391 26.2752034,17.2794343 26.2793772,17.2429048 C26.2836178,17.2063921 26.2857214,17.1562226 26.2857214,17.0923962 C26.2857214,16.9555445 26.2668223,16.8073732 26.2291075,16.6477156 C26.1913927,16.488058 26.1243776,16.3398032 26.0279786,16.2029849 L26.0279786,16.2029849 Z"></path>
                        </g>
                    </g>
                </g>
            </g>
        </g>
    </g>
</svg>