<?xml version="1.0" encoding="UTF-8" standalone="no"?>
<svg width="12px" height="12px" viewBox="0 0 12 12" version="1.1" xmlns="http://www.w3.org/2000/svg" xmlns:xlink="http://www.w3.org/1999/xlink">
    <!-- Generator: Sketch 39.1 (31720) - http://www.bohemiancoding.com/sketch -->
    <title>已完成</title>
    <desc>Created with Sketch.</desc>
    <defs></defs>
    <g id="资讯" stroke="none" stroke-width="1" fill="none" fill-rule="evenodd">
        <g id="1.1.1.2长文章编辑器-样式" transform="translate(-1324.000000, -309.000000)" fill="#2976A4">
            <g id="编辑内容" transform="translate(150.000000, 80.000000)">
                <g id="2" transform="translate(1140.000000, 39.000000)">
                    <g id="功能" transform="translate(20.000000, 20.000000)">
                        <g id="另存为模板" transform="translate(0.000000, 156.000000)">
                            <path d="M24.1602281,14.0388707 C24.1321391,14.0388707 24.1053018,14.0405396 24.0784812,14.0418081 L15.8646231,14.0418081 C15.8378025,14.0405396 15.8109652,14.0388707 15.7828762,14.0388707 C14.7998442,14.0388707 14.0012684,14.8378637 14.0012684,15.8204951 L14.0042058,16.0091238 L14,16.0091238 L14,24.0376912 L14.0042058,24.0376912 L14.0029374,24.2171238 L14.0029374,24.2334798 C14.0029374,25.2043449 14.7927177,25.9958108 15.7648679,25.9958108 C15.7946259,25.9958108 15.8243839,25.9941085 15.8541586,25.9928734 L24.0357385,25.9928734 L24.0445508,25.9941252 C24.083121,25.9987483 24.124612,26 24.1677886,26 C25.1399221,26 25.9296857,25.2102031 25.9296857,24.2410236 L25.9296857,24.2305424 L25.9296857,24.2171238 L25.9284339,24.0376912 L25.9401669,24.0376912 L25.9401669,15.9303143 C25.9430876,15.8946815 25.94479,15.8590487 25.94479,15.8234159 C25.9447733,14.8391321 25.1445118,14.0388707 24.1602281,14.0388707 L24.1602281,14.0388707 Z M22.7215299,20.1181641 L19.4408401,23.3992712 C19.3708428,23.4688512 19.279032,23.5032156 19.1884896,23.5032156 C19.0979305,23.5032156 19.0057191,23.4688512 18.9361224,23.3992712 L17.2228428,21.685975 C17.083249,21.5463811 17.083249,21.3208345 17.2228428,21.1829263 C17.3624367,21.0433324 17.5879666,21.0433324 17.7262921,21.1829263 L19.1884729,22.6451071 L22.2184812,19.6150987 C22.3580751,19.4755049 22.583605,19.4755049 22.7215132,19.6150987 C22.8611238,19.7546926 22.8611238,19.9802392 22.7215299,20.1181641 L22.7215299,20.1181641 Z M24.9940195,16.0686565 L14.9473992,16.0686565 L14.9473992,15.7743811 L14.9545257,15.7559221 C14.9599666,15.7408345 14.9629207,15.7257302 14.9629207,15.7127455 C14.9629207,15.2822142 15.4198387,14.9313435 15.9832545,14.9313435 C15.9861919,14.9313435 15.9920501,14.9300918 15.9975076,14.9300918 L16.0059026,14.9288401 L23.9254854,14.9288401 L23.9368011,14.9300918 C23.9439277,14.9313435 23.952306,14.9313435 23.9594325,14.9313435 C24.5228484,14.9313435 24.981452,15.2822309 24.981452,15.71358 C24.981452,15.7257302 24.9839722,15.7374798 24.9885786,15.7504645 L24.9940362,15.7668206 L24.9940362,16.0686565 L24.9940195,16.0686565 L24.9940195,16.0686565 Z" id="已完成"></path>
                        </g>
                    </g>
                </g>
            </g>
        </g>
    </g>
</svg>