<?xml version="1.0" encoding="UTF-8" standalone="no"?>
<svg width="12px" height="12px" viewBox="0 0 12 12" version="1.1" xmlns="http://www.w3.org/2000/svg" xmlns:xlink="http://www.w3.org/1999/xlink">
    <!-- Generator: Sketch 39.1 (31720) - http://www.bohemiancoding.com/sketch -->
    <title>lingcunwei</title>
    <desc>Created with Sketch.</desc>
    <defs></defs>
    <g id="1.0资讯" stroke="none" stroke-width="1" fill="none" fill-rule="evenodd">
        <g id="1.1.1.3长文章编辑器-样式" transform="translate(-1325.000000, -231.000000)" fill="#2976A4">
            <g id="编辑内容" transform="translate(150.000000, 80.000000)">
                <g id="2" transform="translate(1140.000000, 39.000000)">
                    <g id="功能" transform="translate(20.000000, 20.000000)">
                        <g id="另存为模板" transform="translate(0.000000, 78.000000)">
                            <path d="M23,19.5999688 L26.2000156,22.7999844 L23,26 L23,23.5999687 L18.2000156,23.5999687 L18.2000156,22 L23,22 L23,19.5999688 Z M26.2000156,21.2000156 L26.2000156,14 L15,14 L15,23.5999688 C15,24.4799844 15.6400156,25.2000156 16.5999687,25.2000156 L22.2000156,25.2000156 L22.2000156,24.4000313 L18.2000156,24.4000313 L17.4000312,24.4000313 L17.4000312,23.68 L17.4000312,21.9199844 L17.4000312,21.2000156 L18.2000156,21.2000156 L22.2000156,21.2000156 L22.2000156,19.5999688 L17.4000312,19.5999688 C17,19.5999688 16.5999687,19.2000156 16.5999687,18.7999844 L16.5999687,14.7999844 L24.5999687,14.7999844 L24.5999687,19.5999688 L26.2000156,21.2000156 Z" id="lingcunwei"></path>
                        </g>
                    </g>
                </g>
            </g>
        </g>
    </g>
</svg>