<?xml version="1.0" encoding="UTF-8" standalone="no"?>
<svg width="12px" height="12px" viewBox="0 0 12 12" version="1.1" xmlns="http://www.w3.org/2000/svg" xmlns:xlink="http://www.w3.org/1999/xlink">
    <!-- Generator: Sketch 39.1 (31720) - http://www.bohemiancoding.com/sketch -->
    <title>yulan</title>
    <desc>Created with Sketch.</desc>
    <defs></defs>
    <g id="1.0资讯" stroke="none" stroke-width="1" fill="none" fill-rule="evenodd">
        <g id="1.1.1.3长文章编辑器-样式" transform="translate(-1325.000000, -192.000000)" fill="#2976A4">
            <g id="编辑内容" transform="translate(150.000000, 80.000000)">
                <g id="2" transform="translate(1140.000000, 39.000000)">
                    <g id="功能" transform="translate(20.000000, 20.000000)">
                        <g id="手机预览" transform="translate(0.000000, 39.000000)">
                            <path d="M26.5282899,17.6643864 C26.2260709,16.949852 25.7935136,16.308234 25.2426478,15.7573682 C24.691766,15.2064864 24.050148,14.7739452 23.3356136,14.4717101 C22.5955923,14.1587123 21.8097778,14 21,14 C20.1902222,14 19.4043917,14.1587123 18.6643864,14.4717101 C17.949852,14.7739291 17.308234,15.2064864 16.7573682,15.7573682 C16.2064864,16.308234 15.7739452,16.949852 15.4717101,17.6643864 C15.1587123,18.4044077 15,19.1902222 15,20 C15,20.8097778 15.1587123,21.5955923 15.4717101,22.3356136 C15.7739291,23.050148 16.2064864,23.691766 16.7573682,24.2426478 C17.308234,24.7935296 17.949852,25.2260709 18.6643864,25.5282899 C19.4044077,25.8413037 20.1902222,26 21,26 C21.8097778,26 22.5956083,25.8412877 23.3356136,25.5282899 C24.050148,25.2260709 24.691766,24.7935136 25.2426478,24.2426478 C25.7935296,23.6917821 26.2260709,23.050148 26.5282899,22.3356136 C26.8413037,21.5955923 27,20.8097778 27,20 C27.0000161,19.1902222 26.8413037,18.4044077 26.5282899,17.6643864 Z M23.4421811,22.4421811 C22.7898485,23.0945136 21.9225365,23.4537537 21,23.4537537 C20.0774795,23.4537537 19.2101675,23.0945136 18.557835,22.4421811 C17.9055024,21.7898485 17.5462624,20.9225365 17.5462624,20 C17.5462624,19.0774635 17.9055184,18.2101675 18.557835,17.557835 C19.2101515,16.9055184 20.0774635,16.5462624 21,16.5462624 C21.9225365,16.5462624 22.7898485,16.9055184 23.4421811,17.557835 C24.0945136,18.2101675 24.4537537,19.0774795 24.4537537,20 C24.4537537,20.9225205 24.0945136,21.7898485 23.4421811,22.4421811 Z M21.2871097,18.6670409 C21.2871097,18.2503789 21.4773239,17.8781468 21.7756294,17.6324033 C21.5314097,17.552189 21.2707172,17.5086253 21,17.5086253 C19.6262681,17.5086253 18.5086414,18.6262521 18.5086414,20 C18.5086414,21.3737479 19.6262681,22.4913747 21,22.4913747 C22.3737479,22.4913747 23.4913747,21.3737479 23.4913747,20 C23.4913747,19.9002494 23.4853117,19.8019103 23.4738433,19.7051912 C23.2430167,19.8937213 22.9482401,20.0069131 22.6269659,20.0069131 C21.8869926,20.0069131 21.2871097,19.4070302 21.2871097,18.6670409 Z" id="yulan"></path>
                        </g>
                    </g>
                </g>
            </g>
        </g>
    </g>
</svg>