<?xml version="1.0" encoding="UTF-8" standalone="no"?>
<svg width="13px" height="13px" viewBox="0 0 13 13" version="1.1" xmlns="http://www.w3.org/2000/svg" xmlns:xlink="http://www.w3.org/1999/xlink">
    <!-- Generator: Sketch 39.1 (31720) - http://www.bohemiancoding.com/sketch -->
    <title>fanhui</title>
    <desc>Created with Sketch.</desc>
    <defs></defs>
    <g id="1.0资讯" stroke="none" stroke-width="1" fill="none" fill-rule="evenodd">
        <g id="1.1.1.3长文章编辑器-样式" transform="translate(-162.000000, -94.000000)" fill="#999999">
            <g id="编辑内容" transform="translate(150.000000, 80.000000)">
                <g id="导航">
                    <path d="M24.4618599,17.9611046 C24.1351543,17.188711 23.6675691,16.4951702 23.0720816,15.8996365 C22.4765709,15.3041259 21.782984,14.8365408 21.0106135,14.5098582 C20.2106986,14.1715355 19.36125,14 18.4858706,14 C17.6104911,14 16.7610426,14.1715585 15.9611277,14.5098582 C15.188734,14.8365408 14.4951702,15.3041489 13.8996596,15.8996365 C13.3041489,16.4951702 12.8365638,17.188711 12.5098582,17.9611046 C12.1715355,18.7610195 12,19.610445 12,20.4858475 C12,21.36125 12.1715355,22.2106755 12.5098582,23.0105904 C12.8365638,23.782984 13.3041489,24.4765479 13.8996596,25.0720816 C14.4951702,25.6675691 15.188734,26.1351543 15.9611277,26.4618369 C16.7610426,26.8001826 17.6104911,26.9717181 18.4858706,26.9717181 C19.36125,26.9717181 20.2106986,26.8001596 21.0106135,26.4618369 C21.7830071,26.1351543 22.4765709,25.6675461 23.0720816,25.0720816 C23.6675691,24.4765479 24.1351543,23.782984 24.4618599,23.0106135 C24.8002057,22.2106755 24.9717411,21.36125 24.9717411,20.4858475 C24.9717411,19.610445 24.8001826,18.7609965 24.4618599,17.9611046 Z M22.4049326,24.4049326 C21.3581099,25.4517553 19.9662801,26.02825 18.4858475,26.02825 C17.0054149,26.02825 15.6135851,25.4517323 14.5667624,24.4049326 C13.5199397,23.3580869 12.943445,21.9662801 12.943445,20.4858475 C12.943445,19.0054149 13.5199397,17.6136082 14.5667624,16.5667855 C15.6136082,15.5199628 17.0054149,14.9434681 18.4858475,14.9434681 C19.9662801,14.9434681 21.3581099,15.5199858 22.4049326,16.5667855 C23.4517553,17.6136312 24.028273,19.0054149 24.028273,20.4858475 C24.028273,21.9662801 23.4517553,23.3580869 22.4049326,24.4049326 Z M18.4809149,18.1601844 L17.813766,17.4930585 L14.8209539,20.4858245 L17.813766,23.4786365 L18.4809149,22.8114876 L16.6269858,20.9575585 L22.1507411,20.9575585 L22.1507411,20.0140904 L16.6269858,20.0140904 L18.4809149,18.1601844 Z" id="fanhui"></path>
                </g>
            </g>
        </g>
    </g>
</svg>