<?xml version="1.0" encoding="UTF-8"?>
<svg width="200px" height="200px" viewBox="0 0 200 200" version="1.1" xmlns="http://www.w3.org/2000/svg" xmlns:xlink="http://www.w3.org/1999/xlink">
    <!-- Generator: Sketch 49.3 (51167) - http://www.bohemiancoding.com/sketch -->
    <title>Group 27</title>
    <desc>Created with Sketch.</desc>
    <defs></defs>
    <g id="Page-3" stroke="none" stroke-width="1" fill="none" fill-rule="evenodd">
        <g id="Group-27">
            <circle id="Oval-5" fill="#DDDDDD" cx="100" cy="100" r="100"></circle>
            <path d="M154.931505,134.998573 C143.777133,131.785409 132.358666,129.571163 120.813041,128.38151 C119.759104,128.38151 119.710197,128.38151 119.710197,127.134392 L119.710197,114.813598 L119.710197,79.7659086 C119.710197,78.7119714 119.710197,78.6642875 118.608576,78.6642875 L110.79697,78.6642875 C109.647665,78.6642875 109.647665,78.6642875 109.647665,79.8135925 L109.647665,93.6223699 C109.647665,94.1578971 109.515617,94.683643 109.264971,95.1568143 L101.739469,109.82757 C101.739469,109.82757 101.739469,110.306855 101.213723,110.45113 C100.686754,110.594181 101.213723,109.875254 101.213723,109.635612 L101.213723,70.2731383 C101.213723,69.1226106 101.213723,69.1226106 102.363028,69.1226106 L124.166811,69.1226106 C125.509297,69.1226106 125.509297,69.1226106 125.509297,70.4650967 L125.509297,122.435691 L125.509297,123.251208 C125.509297,123.492073 125.509297,124.017819 126.275908,124.017819 L134.27825,124.017819 C134.852902,124.017819 135.093767,123.7794 135.044861,123.203524 C134.995954,122.628872 135.044861,122.82083 135.044861,122.628872 L135.044861,65.0951525 C135.044861,63.7049825 135.044861,63.7049825 133.655913,63.7049825 L55.4970596,63.7049825 C54.9224071,63.7049825 54.7304487,63.7049825 54.7304487,64.4715934 C54.5873969,65.4301627 54.5873969,66.6772808 54.5873969,68.0197669 C54.5873969,69.362253 54.5873969,69.1702946 55.7843859,69.1702946 L79.5053076,69.1702946 C80.4161929,69.1702946 80.4638768,69.1702946 80.127644,70.0811799 L72.9408197,88.3490162 C72.9408197,88.3490162 72.9408197,88.8747621 72.6045869,88.9236687 C72.2695767,88.9713526 72.3172606,88.6363424 72.2218928,88.444384 C70.640987,85.0881689 69.1065426,81.7319537 67.430269,78.3757386 C67.2725452,77.8548833 66.773698,77.5149825 66.2308348,77.5602211 L57.9888507,77.5602211 C57.079188,77.5602211 57.0302814,77.5602211 57.3652916,78.4711065 L66.9497617,103.402466 C67.2273066,104.044365 67.2273066,104.773074 66.9497617,105.416195 L54.0592057,138.593208 C54.0592057,138.593208 53.7718794,139.026031 54.0592057,139.312134 C54.2621681,139.379381 54.4798024,139.379381 54.6827648,139.312134 C58.3764354,138.056458 62.13613,137.000075 65.9435085,136.147878 C66.4753677,136.054955 66.9057458,135.663702 67.0451296,135.141624 C68.6749419,130.731472 70.3524381,126.367781 71.837976,121.957629 L72.4126285,120.375501 C72.4126285,120.088174 72.6999547,120.039268 72.8442292,120.375501 L72.8442292,120.902469 L77.6358529,133.129118 C77.7483381,133.645083 78.259412,133.97398 78.7765993,133.861494 C81.6608658,133.464128 84.4888897,133.224486 87.3633749,133.078989 C88.9931872,133.078989 88.9931872,133.078989 88.4185347,131.54699 L78.5467383,105.367289 C78.3572252,104.923462 78.3572252,104.422169 78.5467383,103.978342 L90.5264089,74.0132702 C90.5264089,74.0132702 90.5264089,73.5327629 90.9103257,73.485079 C90.9946896,73.7821866 90.9946896,74.0988568 90.9103257,74.3959644 L90.9103257,95.7803734 L90.9103257,123.395483 C90.9103257,124.690285 90.9103257,124.690285 92.2039052,124.690285 L96.0858662,124.690285 C96.9955289,124.690285 97.0432129,124.690285 96.6128348,125.599948 L92.9228321,131.929684 C92.540138,132.600927 92.587822,132.743979 93.3544329,132.743979 L100.87749,132.743979 C101.509608,132.817339 102.113604,132.466434 102.363028,131.882 C104.519809,128.092961 106.723051,124.306368 108.879832,120.518552 C109.01188,120.195769 109.227069,119.915779 109.503391,119.703035 C109.790717,119.942677 109.503391,120.27891 109.503391,120.566236 L109.503391,131.737725 C109.503391,133.367538 109.503391,133.367538 111.133203,133.416444 C114.722947,133.594953 118.295574,134.044894 121.819294,134.75893 C131.310842,136.690741 140.543185,139.731509 149.325587,143.8201 C150.883398,141.768009 152.752037,138.8275 154.931505,134.998573 Z" id="Fill-1" fill="#FAFAFA" opacity="0.5"></path>
        </g>
    </g>
</svg>