<?xml version="1.0" encoding="UTF-8"?>
<svg width="100px" height="19px" viewBox="0 0 100 19" version="1.1" xmlns="http://www.w3.org/2000/svg" xmlns:xlink="http://www.w3.org/1999/xlink">
    <!-- Generator: Sketch 49.3 (51167) - http://www.bohemiancoding.com/sketch -->
    <title>底部logo</title>
    <desc>Created with Sketch.</desc>
    <defs>
        <polygon id="path-1" points="18.9406264 0.0815763547 0 0.0815763547 0 18.7192118 18.9406264 18.7192118"></polygon>
    </defs>
    <g id="Page-4" stroke="none" stroke-width="1" fill="none" fill-rule="evenodd">
        <g id="Page-1">
            <g id="Group-3" transform="translate(0.000000, 0.115389)">
                <mask id="mask-2" fill="white">
                    <use xlink:href="#path-1"></use>
                </mask>
                <g id="Clip-2"></g>
                <path d="M0.0023429052,1.20210837 C-0.00807000681,0.658660099 0.379210221,0.186541872 0.920681645,0.0815172414 L1.05404702,0.0815172414 L17.8889223,0.0815172414 C18.1686691,0.11462069 18.4285915,0.239940887 18.626637,0.436985222 C18.7824302,0.609793103 18.8881613,0.820630542 18.9328167,1.04742857 L18.9328167,14.9556059 L18.7914414,14.9556059 C16.9645761,14.4377734 15.0944571,14.0809261 13.2035124,13.889202 C13.0308983,13.889202 13.0228884,13.889202 13.0228884,13.6882167 L13.0228884,11.702601 L13.0228884,6.05432512 C13.0228884,5.88447291 13.0228884,5.87678818 12.8424647,5.87678818 L11.5630782,5.87678818 C11.3748448,5.87678818 11.3748448,5.87678818 11.3748448,6.06200985 L11.3748448,8.28742857 C11.3748448,8.37373399 11.353218,8.45846305 11.3121671,8.53471921 L10.0796388,10.8990542 C10.0796388,10.8990542 10.0796388,10.9762956 9.99353198,10.9995468 C9.90722496,11.022601 9.99353198,10.9067389 9.99353198,10.8681182 L9.99353198,4.52447291 C9.99353198,4.33905419 9.99353198,4.33905419 10.1817654,4.33905419 L13.7527935,4.33905419 C13.9726661,4.33905419 13.9726661,4.33905419 13.9726661,4.55540887 L13.9726661,12.9309754 L13.9726661,13.0624039 C13.9726661,13.1012217 13.9726661,13.1859507 14.0982218,13.1859507 L15.408847,13.1859507 C15.5029637,13.1859507 15.5424126,13.1475271 15.5344027,13.0547192 C15.5263927,12.9621084 15.5344027,12.9930443 15.5344027,12.9621084 L15.5344027,3.68999015 C15.5344027,3.46595074 15.5344027,3.46595074 15.3069206,3.46595074 L2.5060475,3.46595074 C2.41193079,3.46595074 2.38049181,3.46595074 2.38049181,3.58949754 C2.35706276,3.7439803 2.35706276,3.94496552 2.35706276,4.1613202 C2.35706276,4.37767488 2.35706276,4.34673892 2.55310585,4.34673892 L6.43812327,4.34673892 C6.58730826,4.34673892 6.59511795,4.34673892 6.54004966,4.49353695 L5.36299011,7.43757635 C5.36299011,7.43757635 5.36299011,7.52230542 5.30792182,7.53018719 C5.25305379,7.53787192 5.26086347,7.48388177 5.2452441,7.45294581 C4.98632304,6.91205911 4.73501141,6.37117241 4.46047098,5.83028571 C4.43463895,5.74634483 4.35293764,5.6915665 4.26402739,5.69885714 L2.91415355,5.69885714 C2.76516881,5.69885714 2.75715888,5.69885714 2.81202691,5.84565517 L4.3817734,9.86358621 C4.42722976,9.96703448 4.42722976,10.0844729 4.3817734,10.1881182 L2.27055549,15.5349163 C2.27055549,15.5349163 2.22349714,15.60467 2.27055549,15.6507783 C2.30379671,15.6616158 2.33944091,15.6616158 2.37268213,15.6507783 C2.97763226,15.4484138 3.59339581,15.2781675 4.21696904,15.1408276 C4.30407706,15.1258522 4.37456446,15.062798 4.39739277,14.9786601 C4.66432376,14.2679212 4.93906444,13.56467 5.18236613,12.853931 L5.27648284,12.5989557 C5.27648284,12.5526502 5.32354119,12.5447685 5.34717049,12.5989557 L5.34717049,12.6838818 L6.13194361,14.6543251 C6.15036645,14.7374778 6.23407025,14.7904828 6.31877528,14.7723547 C6.32197925,14.7717635 6.32498298,14.7707783 6.32818695,14.7699901 C6.79116104,14.7083153 7.25433538,14.6696946 7.72511915,14.6462463 C7.99205014,14.6462463 7.99205014,14.6462463 7.89793344,14.3993498 L6.2811286,10.1802365 C6.25009011,10.1087094 6.25009011,10.0279212 6.2811286,9.95639409 L8.24316152,5.12723153 C8.24316152,5.12723153 8.24316152,5.0497931 8.30603949,5.04210837 C8.31985662,5.08999015 8.31985662,5.14102463 8.30603949,5.1889064 L8.30603949,8.63521182 L8.30603949,13.0856552 C8.30603949,13.2943251 8.30603949,13.2943251 8.5179022,13.2943251 L9.15369058,13.2943251 C9.30267532,13.2943251 9.310485,13.2943251 9.2399976,13.4409261 L8.6356482,14.4610246 C8.57297048,14.569202 8.58078017,14.5922562 8.70633586,14.5922562 L9.93846369,14.5922562 C10.0419921,14.6040788 10.1409147,14.5475271 10.1817654,14.4533399 C10.5350034,13.8426995 10.8958509,13.2324532 11.2490889,12.6220099 C11.2707157,12.5699901 11.3059594,12.524867 11.3512155,12.4905813 C11.3982739,12.529202 11.3512155,12.5833892 11.3512155,12.6296946 L11.3512155,14.4300887 C11.3512155,14.6927488 11.3512155,14.6927488 11.6181465,14.7006305 C12.2060755,14.729399 12.7912011,14.8019113 13.3683167,14.9169852 C14.9228443,15.2283153 16.4349193,15.7183645 17.8733029,16.3772808 C18.2377548,16.5256552 18.5941968,16.6933399 18.9406264,16.8795468 L18.9406264,17.7524532 C18.9047819,17.9518621 18.8212784,18.1396453 18.6973247,18.3010246 C18.4636349,18.5778719 18.1127999,18.7319606 17.747547,18.7185616 L1.10891505,18.7185616 C0.813348552,18.7130443 0.531599183,18.5938325 0.324141936,18.3861478 C0.0976610998,18.1429951 -0.0184829188,17.8192512 0.0023429052,17.4897931 L0.0023429052,1.31797044" id="Fill-1" fill="#FFFFFF" mask="url(#mask-2)"></path>
            </g>
            <polygon id="Fill-4" fill="#FFFFFF" points="30.8438491 4 33.3128788 7.61788772 35.7819085 4 38.91583 4 34.8459344 9.89646512 39.0243902 16 35.9176884 16 33.3128788 12.1886528 30.7080692 16 27.6422764 16 31.7120129 9.9515541 27.6422764 4.05525101"></polygon>
            <polygon id="Fill-6" fill="#FFFFFF" points="50.4065041 4 50.4065041 6.4441684 46.8433485 6.4441684 46.8433485 16 44.213562 16 44.213562 6.4441684 40.6504065 6.4441684 40.6504065 4"></polygon>
            <path d="M55.0268433,11.5438424 C55.1473486,11.9859511 55.3540917,12.4020995 55.6358664,12.7700804 C55.910008,13.0977132 56.2612925,13.3579427 56.660162,13.5298131 C57.3539611,13.7665845 58.1114234,13.7665845 58.8055474,13.5298131 C59.2097763,13.3667004 59.5628473,13.1047506 59.8296806,12.7700804 C60.1025229,12.4017867 60.308454,11.9917375 60.4387037,11.5571354 C60.5637564,11.036989 60.6285565,10.5049572 60.6326166,9.97104868 C60.625146,9.4629442 60.5554737,8.95734193 60.4248992,8.46503263 C60.26769,8.04466179 60.0383725,7.65275357 59.7466911,7.30541591 C58.806197,6.20131692 57.1142496,6.04039371 55.9676621,6.94603638 C55.831241,7.0536313 55.7061882,7.17420641 55.5942904,7.30541591 C55.3201488,7.67761925 55.1140554,8.09251651 54.9852673,8.5316539 C54.8645995,9.00222527 54.8132792,9.48687156 54.8330927,9.97104868 C54.8140912,10.5018294 54.8795409,11.032141 55.0268433,11.5438424 Z M52.3970003,7.67855758 C52.6477555,6.94243946 53.0424024,6.25933685 53.559666,5.66600093 C54.1105477,5.07000642 54.8043468,4.61257164 55.5803235,4.33326274 C56.2791572,4.11979318 57.0067368,4.00766301 57.7396757,4 C58.4680674,4.00672468 59.1914244,4.11885485 59.8850611,4.33326274 C60.6608753,4.6130408 61.354512,5.07047558 61.9058809,5.66600093 C62.4306152,6.25448882 62.8260742,6.93915531 63.068709,7.67855758 C63.2900686,8.42452815 63.4065138,9.1953644 63.4146341,9.97104868 C63.4146341,10.7755083 63.288607,11.5752764 63.0409376,12.343454 C62.8085344,13.0817616 62.4223325,13.7665845 61.9058809,14.3561671 C61.6351499,14.6357887 61.3335616,14.8861659 61.0061508,15.1026068 C60.6498317,15.3278055 60.2693141,15.515471 59.8712566,15.6623193 C58.4696914,16.1125602 56.9542796,16.1125602 55.5527144,15.6623193 C55.1546569,15.515471 54.7739769,15.3279618 54.4178202,15.1026068 C54.092683,14.8886681 53.7953174,14.6379782 53.5318946,14.3561671 C53.0149558,13.7647078 52.6245314,13.0808233 52.3831958,12.343454 C51.9156285,10.8030326 51.9156285,9.16580708 52.3831958,7.62522929 L52.3970003,7.67855758 Z" id="Fill-8" fill="#FFFFFF"></path>
            <polygon id="Fill-10" fill="#FFFFFF" points="68.577757 4 68.577757 8.43255651 72.5275879 4 75.8372253 4 71.4650201 9.01261106 76.4227642 16 73.0995431 16 69.5856702 11.1529799 68.577757 12.313089 68.577757 16 65.8536585 16 65.8536585 4"></polygon>
            <polygon id="Fill-12" fill="#FFFFFF" points="87.749113 4 87.749113 6.4413994 80.7804486 6.4413994 80.7804486 8.74474685 86.9548295 8.74474685 86.9548295 11.1861463 80.8362136 11.1861463 80.8362136 13.5725191 87.804878 13.5725191 87.804878 16 78.0487805 16 78.0487805 4"></polygon>
            <polygon id="Fill-14" fill="#FFFFFF" points="92.2654457 4 97.3003895 11.6777835 97.3003895 4 100 4 100 16 97.1652902 16 92.1303464 8.34976101 92.1303464 16 89.4308943 16 89.4308943 4"></polygon>
        </g>
    </g>
</svg>