<?xml version="1.0" encoding="UTF-8" standalone="no"?>
<svg width="16px" height="16px" viewBox="0 0 16 16" version="1.1" xmlns="http://www.w3.org/2000/svg" xmlns:xlink="http://www.w3.org/1999/xlink">
    <!-- Generator: Sketch 48.2 (47327) - http://www.bohemiancoding.com/sketch -->
    <title>价值 copy</title>
    <desc>Created with Sketch.</desc>
    <defs></defs>
    <g id="Page-1" stroke="none" stroke-width="1" fill="none" fill-rule="evenodd">
        <g id="价值-copy" transform="translate(2.000000, 1.000000)" fill="#000000" fill-rule="nonzero" stroke="#000000" stroke-width="0.2">
            <path d="M11.9254769,1.78722852 L11.9254769,1.63830078 C11.7018802,0.446796875 9.54038151,0 7.67701634,0 C5.81365117,0 3.65217986,0.446796875 3.42856947,1.63830078 L3.42856947,2.01064062 C1.63975478,2.08509766 0,2.60637891 0,3.72339844 L0,12.4361699 C0.298133501,13.5531895 2.45963217,14 4.24844686,14 C6.03727524,14 8.19876023,13.6276602 8.49689373,12.4361699 C8.49689373,12.3616992 8.57143053,12.2872285 8.57143053,12.2127715 L8.57143053,12.0638301 C9.54038151,11.9893594 11.6273434,11.6914902 11.9254769,10.5744707 C11.9254769,10.5 12,10.4255293 12,10.3510723 L11.9254769,1.78722852 Z M4.24844686,5.21277148 C5.96273844,5.21277148 7.22982293,4.84043164 7.97514984,4.39362109 L7.97514984,6.47871875 C7.82608993,6.70211719 6.63354224,7.44681055 4.24844686,7.44681055 C1.86335149,7.44681055 0.745340595,6.70213086 0.596280686,6.47871875 L0.596280686,4.39362109 C1.2670708,4.84041797 2.53416897,5.21277148 4.24844686,5.21277148 Z M11.3291962,4.54254883 C11.2546594,4.69149023 10.3602589,5.36169922 8.57143053,5.51064062 L8.57143053,3.5 C8.57143053,3.4255293 8.49689373,3.27660156 8.49689373,3.20213086 C9.76397822,3.12766016 10.8074523,2.75532031 11.403733,2.38298047 L11.3291962,4.54254883 Z M0.596280686,7.22339844 C1.2670708,7.67020898 2.53416897,8.04254883 4.24844686,8.04254883 C5.96273844,8.04254883 7.22982293,7.67020898 7.90062673,7.22339844 L7.90062673,9.30850977 C7.75155314,9.5319082 6.55900545,10.3510586 4.24844686,10.3510586 C1.86335149,10.3510586 0.745340595,9.60637891 0.596280686,9.30850977 L0.596280686,7.22339844 Z M8.57143053,6.10637891 C9.7639919,6.0319082 10.7329292,5.65958203 11.3291962,5.28722852 L11.3291962,7.37233984 C11.1801226,7.59573828 10.3602589,8.19149023 8.57143053,8.34043164 L8.57143053,6.10637891 Z M7.67701634,0.595738281 C9.61490462,0.595738281 11.1055995,1.04254883 11.3291962,1.71277148 C11.1801226,1.93616992 10.0621117,2.60637891 7.90062673,2.68084961 C7.08074934,2.15956836 5.59006815,1.93616992 4.24844686,1.93616992 L3.95031336,1.93616992 L3.95031336,1.86169922 C4.02485016,1.11701953 5.59006815,0.595738281 7.67701634,0.595738281 Z M4.24844686,2.5319082 C6.18633515,2.5319082 7.75155314,2.97871875 7.90062673,3.64894141 C7.75155314,3.87233984 6.55900545,4.69149023 4.24844686,4.69149023 C1.93790197,4.69149023 0.819877391,3.94681055 0.596280686,3.64894141 C0.819877391,2.97871875 2.31055858,2.5319082 4.24844686,2.5319082 Z M4.24844686,13.329791 C2.31055858,13.329791 0.745340595,12.8829805 0.596280686,12.1382871 L0.596280686,10.0532031 C1.2670708,10.5000137 2.53416897,10.8723535 4.24844686,10.8723535 C5.96273844,10.8723535 7.22982293,10.5000137 7.90062673,10.0532031 L7.90062673,12.2127852 C7.75155314,12.8829805 6.18633515,13.3298047 4.24844686,13.3298047 L4.24844686,13.329791 Z M8.57143053,11.3936211 L8.57143053,8.93616992 C9.7639919,8.86169922 10.7329292,8.48937305 11.3291962,8.19149023 L11.3291962,10.3510586 C11.1801226,10.8723398 10.0621117,11.3191504 8.57143053,11.3936211 Z" id="Shape"></path>
        </g>
    </g>
</svg>