<?xml version="1.0" encoding="UTF-8"?>
<svg width="22px" height="18px" viewBox="0 0 22 18" version="1.1" xmlns="http://www.w3.org/2000/svg" xmlns:xlink="http://www.w3.org/1999/xlink">
    <!-- Generator: Sketch 48.1 (47250) - http://www.bohemiancoding.com/sketch -->
    <title>Group 17</title>
    <desc>Created with Sketch.</desc>
    <defs></defs>
    <g id="01项目列表04" stroke="none" stroke-width="1" fill="none" fill-rule="evenodd" transform="translate(-952.000000, -282.000000)">
        <g id="Group-17" transform="translate(952.000000, 282.000000)" fill="#4A90E2">
            <g id="Group-12">
                <g id="iconfont-touzifuxing">
                    <path d="M21.4995115,18 L0.500459202,18 C0.224189066,18 0,17.776054 0,17.5000179 L0,0.499982096 C0,0.223975338 0.224189066,0 0.500459202,0 C0.776758663,0 1.00094773,0.223037835 1.00094773,0.499982096 L1.00094773,17.0000358 L21.4995115,17.0000358 C21.7758109,17.0000358 22,17.224099 22,17.5000179 C22,17.776054 21.7768373,18 21.4995115,18 Z" id="Fill-1"></path>
                    <polygon id="Fill-2" points="3.38461538 14.5714286 7.61538462 14.5714286 7.61538462 3.42857143 3.38461538 3.42857143"></polygon>
                    <path d="M7.95385805,14.5714286 L3.89229579,14.5714286 C3.61203931,14.5714286 3.38461538,14.346626 3.38461538,14.069833 L3.38461538,3.07302419 C3.38461538,2.79611355 3.61203931,2.57142857 3.89229579,2.57142857 L7.95385805,2.57142857 C8.23414428,2.57142857 8.46153846,2.79611355 8.46153846,3.07302419 L8.46153846,14.069833 C8.46153846,14.346626 8.23414428,14.5714286 7.95385805,14.5714286 Z M4.40000595,13.5682667 L7.4461479,13.5682667 L7.4461479,3.57459042 L4.40000595,3.57459042 L4.40000595,13.5682667 Z" id="Fill-3"></path>
                    <polygon id="Fill-4" points="9.30769231 13.7142857 13.5384615 13.7142857 13.5384615 0.857142857 9.30769231 0.857142857"></polygon>
                    <path d="M13.8769469,14.5714286 L9.81539056,14.5714286 C9.53522989,14.5714286 9.30769231,14.3528204 9.30769231,14.0836191 L9.30769231,0.487809471 C9.30769231,0.218493824 9.53522989,0 9.81539056,0 L13.8769469,0 C14.1572265,0 14.3846154,0.218493824 14.3846154,0.487809471 L14.3846154,14.0836191 C14.3846154,14.3528204 14.1581487,14.5714286 13.8769469,14.5714286 Z M10.3230591,13.595781 L13.3692784,13.595781 L13.3692784,0.975647526 L10.3230591,0.975647526 L10.3230591,13.595781 Z" id="Fill-5"></path>
                    <polygon id="Fill-6" points="15.2307692 14.5714286 19.4615385 14.5714286 19.4615385 2.57142857 15.2307692 2.57142857"></polygon>
                    <path d="M19.7999941,14.5714286 L15.7384377,14.5714286 C15.4582771,14.5714286 15.2307692,14.3491627 15.2307692,14.0752335 L15.2307692,2.21048082 C15.2307692,1.93655158 15.4582771,1.71428571 15.7384377,1.71428571 L19.7999941,1.71428571 C20.0802737,1.71428571 20.3076923,1.93655158 20.3076923,2.21048082 L20.3076923,14.0752335 C20.3076923,14.350064 20.0802737,14.5714286 19.7999941,14.5714286 Z M16.0769231,13.7142857 L19.4615385,13.7142857 L19.4615385,2.57142857 L16.0769231,2.57142857 L16.0769231,13.7142857 Z" id="Fill-7"></path>
                </g>
            </g>
        </g>
    </g>
</svg>