<?xml version="1.0" encoding="UTF-8"?>
<svg width="16px" height="16px" viewBox="0 0 16 16" version="1.1" xmlns="http://www.w3.org/2000/svg" xmlns:xlink="http://www.w3.org/1999/xlink">
    <!-- Generator: Sketch 49.3 (51167) - http://www.bohemiancoding.com/sketch -->
    <title>项目详情-左侧github已激活</title>
    <desc>Created with Sketch.</desc>
    <defs></defs>
    <g id="Page-4" stroke="none" stroke-width="1" fill="none" fill-rule="evenodd">
        <path d="M7.99933328,0.000683423304 C12.416368,0.000683423304 16,3.67412674 16,8.20185918 C16,11.8219948 13.7084757,14.8974358 10.5308776,15.9868253 C10.1248437,16.0613193 9.97883156,15.8050325 9.97883156,15.591802 C9.97883156,15.3245803 9.98949912,14.4388533 9.98949912,13.3385289 C9.98949912,12.5696687 9.73947828,12.0782816 9.44812067,11.8219948 C11.2296025,11.6190157 13.1044254,10.9246495 13.1044254,7.7747146 C13.1044254,6.87736929 12.7917327,6.15156523 12.2816901,5.57474922 C12.3650304,5.36083522 12.6357197,4.52841588 12.1983499,3.39665362 C11.5316276,3.18273963 10.0001667,4.24000787 10.0001667,4.24000787 C8.69117471,3.86981427 7.30882529,3.86981427 5.99983332,4.24000787 C5.99983332,4.24000787 4.46837236,3.18273963 3.80165014,3.39665362 C3.36428036,4.52841588 3.63496959,5.36151864 3.71830986,5.57474922 C3.20760064,6.15156525 2.89557463,6.8773693 2.89557463,7.7747146 C2.89557463,10.9143981 4.7603967,11.6190157 6.54187849,11.8219948 C6.31252605,12.0359088 6.10450871,12.3988109 6.03116927,12.9216358 C5.57246437,13.1355498 4.40570047,13.4984519 3.70830903,12.2382045 C3.27093925,11.4584094 2.47887325,11.3948503 2.47887323,11.3948503 C1.69747479,11.3839154 2.42686891,11.8964889 2.42686891,11.8964889 C2.94757897,12.1418407 3.31227602,13.0924937 3.31227602,13.0924937 C3.78098174,14.5557201 6.01050086,14.064333 6.01050088,14.064333 C6.01050088,14.7477643 6.02116844,15.3881394 6.02116842,15.5911185 C6.02116842,15.8050325 5.87515625,16.0613193 5.46912243,15.9861418 C2.29152429,14.8967523 0,11.8213114 0,8.20117575 C0,3.67344331 3.58363198,0 8.00066672,0 L7.99933328,0.000683423304 Z M3.03025252,11.7789387 C3.05092091,11.7358825 3.01958496,11.6825749 2.9575798,11.651137 C2.89490791,11.6299506 2.84290357,11.6402021 2.82223518,11.6723234 C2.8015668,11.7153796 2.83290274,11.7686872 2.89490791,11.800125 C2.94691224,11.8322463 3.00958414,11.8213114 3.03025252,11.7789387 Z M3.35294607,12.1425241 C3.39494957,12.1104029 3.38428202,12.0359088 3.33227769,11.9716663 C3.28027336,11.9183587 3.20760064,11.8971723 3.16559714,11.939545 C3.12359363,11.9716663 3.13426119,12.0461603 3.18626552,12.1104029 C3.23826984,12.1637105 3.31094257,12.1848969 3.35294607,12.1425241 Z M3.6656388,12.6229763 C3.71764312,12.5799202 3.71764312,12.4951747 3.6656388,12.4199972 C3.6236353,12.3455032 3.54096174,12.3133819 3.48829069,12.3557547 C3.43628636,12.387876 3.43628636,12.4733049 3.48829069,12.5477989 C3.54029501,12.6222929 3.6236353,12.6544142 3.6656388,12.6222929 L3.6656388,12.6229763 Z M4.10300858,13.0713073 C4.14501208,13.0282511 4.12367696,12.9325707 4.06100508,12.8683282 C3.98833235,12.7938342 3.89432452,12.7828993 3.85232102,12.8362069 C3.8003167,12.8792631 3.82098508,12.9749435 3.89432452,13.039186 C3.96699725,13.11368 4.06100508,13.1246149 4.10300858,13.0713073 Z M4.69705808,13.3385289 C4.71772647,13.2742864 4.65505458,13.1997924 4.56171347,13.1676711 C4.47837318,13.1464847 4.38436536,13.178606 4.36369697,13.2421651 C4.34302859,13.3057242 4.40570047,13.3809017 4.49904159,13.402088 C4.58238187,13.4342093 4.6763897,13.402088 4.69705808,13.3378455 L4.69705808,13.3385289 Z M5.35311276,13.3918366 C5.35311276,13.3173426 5.26977247,13.2640349 5.17576465,13.2742864 C5.08175682,13.2742864 5.00908409,13.327594 5.00908409,13.3918366 C5.00908409,13.4663306 5.08175682,13.5196382 5.1864322,13.5093867 C5.28044003,13.5093867 5.35311276,13.4560791 5.35311276,13.3918366 Z M5.95716309,13.2852213 C5.94649553,13.2209787 5.86315526,13.178606 5.76981415,13.1888575 C5.67580633,13.2100438 5.61380116,13.2742864 5.62380198,13.3487804 C5.63446954,13.4130229 5.71780981,13.4553957 5.81115092,13.4342093 C5.90449203,13.4130229 5.96716392,13.3487804 5.95716309,13.2845378 L5.95716309,13.2852213 Z" id="Shape-Copy-3" fill="#333333" fill-rule="nonzero"></path>
    </g>
</svg>