<?xml version="1.0" encoding="UTF-8"?>
<svg width="16px" height="16px" viewBox="0 0 16 16" version="1.1" xmlns="http://www.w3.org/2000/svg" xmlns:xlink="http://www.w3.org/1999/xlink">
    <!-- Generator: Sketch 49.3 (51167) - http://www.bohemiancoding.com/sketch -->
    <title>项目详情-左侧reddit已激活</title>
    <desc>Created with Sketch.</desc>
    <defs></defs>
    <g id="Page-4" stroke="none" stroke-width="1" fill="none" fill-rule="evenodd">
        <path d="M9.7767857,10.4196429 C9.8720238,10.514881 9.8720238,10.6071429 9.7767857,10.6964286 C9.40773809,11.0654762 8.81547618,11.25 7.99999998,11.25 C7.18452379,11.25 6.59226188,11.0654762 6.22321427,10.6964286 C6.12797617,10.6071429 6.12797617,10.514881 6.22321427,10.4196429 C6.25892855,10.3839286 6.30357141,10.3660714 6.35714284,10.3660714 C6.41071428,10.3660714 6.45535714,10.3839286 6.49107142,10.4196429 C6.7767857,10.7113095 7.2797619,10.8571429 8,10.8571429 C8.71428572,10.8571429 9.21726191,10.7113095 9.50892858,10.4196429 C9.54464286,10.3839286 9.58928572,10.3660714 9.64285716,10.3660714 C9.69642859,10.3660714 9.74107145,10.3839286 9.77678573,10.4196429 Z M7.03571428,8.80357144 C7.03571428,9.02380953 6.95833333,9.21130953 6.80357142,9.36607144 C6.64880952,9.52083334 6.46130952,9.5982143 6.24107142,9.5982143 C6.02083333,9.5982143 5.83184523,9.52083334 5.67410714,9.36607144 C5.51636905,9.21130953 5.4375,9.02380953 5.4375,8.80357144 C5.4375,8.57738096 5.51636905,8.38690477 5.67410714,8.23214286 C5.83184523,8.07738095 6.02083333,8 6.24107142,8 C6.46130952,8 6.64880952,8.07886905 6.80357142,8.23660714 C6.95833333,8.39434523 7.03571428,8.58333333 7.03571428,8.80357142 Z M10.5625,8.80357144 C10.5625,9.02380953 10.483631,9.21130953 10.3258929,9.36607144 C10.1681548,9.52083334 9.97916667,9.5982143 9.75892858,9.5982143 C9.53869048,9.5982143 9.35119048,9.52083334 9.19642858,9.36607144 C9.04166667,9.21130953 8.96428572,9.02380953 8.96428572,8.80357144 C8.96428572,8.58333334 9.04166667,8.39434525 9.19642858,8.23660716 C9.35119048,8.07886906 9.53869048,8.00000002 9.75892858,8.00000002 C9.97916667,8.00000002 10.1681548,8.07738097 10.3258929,8.23214287 C10.483631,8.38690478 10.5625,8.57738097 10.5625,8.80357145 Z M12.8035714,7.73214286 C12.8035714,7.44047619 12.6994048,7.19047619 12.4910714,6.98214286 C12.2827381,6.77380953 12.0297619,6.66964286 11.7321428,6.66964286 C11.4345238,6.66964286 11.1785714,6.77678572 10.9642857,6.99107144 C10.1904762,6.45535716 9.26488094,6.16964287 8.18749998,6.13392858 L8.74999998,3.60714286 L10.5357143,4.00892858 C10.5357143,4.22916667 10.6130952,4.41666667 10.7678571,4.57142858 C10.922619,4.72619048 11.110119,4.80357144 11.3303571,4.80357144 C11.5505952,4.80357144 11.7395833,4.72470239 11.8973214,4.5669643 C12.0550595,4.4092262 12.1339285,4.22023811 12.1339285,4.00000002 C12.1339285,3.77976192 12.0550595,3.59077383 11.8973214,3.43303573 C11.7395833,3.27529764 11.5505952,3.19642859 11.3303571,3.19642859 C11.0089286,3.19642859 10.7708333,3.34523812 10.6160714,3.64285717 L8.64285712,3.20535717 C8.52976189,3.17559527 8.45535712,3.22321431 8.41964284,3.34821431 L7.80357142,6.13392859 C6.73214285,6.17559526 5.81249999,6.46428573 5.04464284,7.00000002 C4.83630951,6.77976192 4.57738094,6.66964287 4.26785712,6.66964287 C3.97023807,6.66964287 3.71726188,6.77380954 3.50892855,6.98214287 C3.30059521,7.19047621 3.19642855,7.44047621 3.19642855,7.73214287 C3.19642855,7.94047621 3.25148807,8.1309524 3.36160712,8.30357145 C3.47172618,8.47619051 3.6190476,8.60714289 3.80357141,8.69642859 C3.76785712,8.85714288 3.74999998,9.02380954 3.74999998,9.19642859 C3.74999998,10.0416667 4.16666665,10.764881 4.99999998,11.3660715 C5.83333332,11.9672619 6.83630951,12.2678572 8.00892856,12.2678572 C9.18749999,12.2678572 10.1934524,11.9672619 11.0267857,11.3660715 C11.860119,10.764881 12.2767857,10.0416667 12.2767857,9.19642859 C12.2767857,9.00595241 12.2559524,8.83630955 12.2142857,8.68750002 C12.3928571,8.5982143 12.5357143,8.46875001 12.6428571,8.29910716 C12.75,8.1294643 12.8035714,7.94047621 12.8035714,7.73214288 Z M16,8 C16,9.08333333 15.7886905,10.1190476 15.3660714,11.1071429 C14.9434524,12.0952381 14.375,12.9464286 13.6607143,13.6607143 C12.9464286,14.375 12.0952381,14.9434524 11.1071429,15.3660714 C10.1190476,15.7886905 9.08333333,16 8,16 C6.91666667,16 5.88095238,15.7886905 4.89285714,15.3660714 C3.9047619,14.9434524 3.05357143,14.375 2.33928572,13.6607143 C1.62500001,12.9464286 1.05654763,12.0952381 0.633928578,11.1071429 C0.211309526,10.1190476 -7.40148672e-17,9.08333333 0,8 C7.40148672e-17,6.91666667 0.211309526,5.88095238 0.633928578,4.89285714 C1.05654763,3.9047619 1.62500001,3.05357143 2.33928572,2.33928572 C3.05357143,1.62500001 3.9047619,1.05654763 4.89285714,0.633928578 C5.88095238,0.211309526 6.91666667,5.18104078e-16 8,0 C9.08333333,-5.18104078e-16 10.1190476,0.211309526 11.1071429,0.633928578 C12.0952381,1.05654763 12.9464286,1.62500001 13.6607143,2.33928572 C14.375,3.05357143 14.9434524,3.9047619 15.3660714,4.89285714 C15.7886905,5.88095238 16,6.91666667 16,8 Z" id="Shape-Copy-4" fill="#333333" fill-rule="nonzero"></path>
    </g>
</svg>