<?xml version="1.0" encoding="UTF-8"?>
<svg width="14px" height="14px" viewBox="0 0 14 14" version="1.1" xmlns="http://www.w3.org/2000/svg" xmlns:xlink="http://www.w3.org/1999/xlink">
    <!-- Generator: Sketch 49.3 (51167) - http://www.bohemiancoding.com/sketch -->
    <title>项目详情-价格对比</title>
    <desc>Created with Sketch.</desc>
    <defs></defs>
    <g id="Page-4" stroke="none" stroke-width="1" fill="none" fill-rule="evenodd">
        <path d="M1.31370779,4.95793576 C1.90444698,4.95793576 2.42477831,5.36914303 2.57875974,5.92962026 L4.13173981,6.38200544 L5.61030505,3.97309721 C5.80607327,3.64939302 6.22623079,3.54816397 6.54735937,3.74375909 L6.57769772,3.76434804 L9.10837404,5.49839594 L11.1261605,1.94279707 C11.0202625,1.75406494 10.9590134,1.53788087 10.9590134,1.30854274 C10.9590134,0.951095533 11.107843,0.620528354 11.3436808,0.384327239 C11.5818082,0.148126123 11.9092334,0 12.2704315,0 C12.9893931,0 13.582422,0.593648324 13.582422,1.30911466 C13.582422,1.67342485 13.4370269,1.99712904 13.1988995,2.24019315 C12.9710756,2.46266829 12.6568161,2.61136633 12.3127907,2.6176574 L9.94067518,6.79435654 C9.92693706,6.82123657 9.91377136,6.84182553 9.89831598,6.86184258 C9.68594753,7.17868378 9.26063821,7.25989579 8.94981323,7.04428363 L6.39852972,5.29650976 L5.49009649,6.7743395 L6.3819295,7.03055766 C6.46092369,7.05743769 6.53190398,7.09118071 6.59429795,7.13807778 L6.59601521,7.13807778 L9.50792438,9.27017889 L11.0614769,9.03397778 C11.2623969,8.55528447 11.7432311,8.23100837 12.2704315,8.23100837 C12.6316296,8.23100837 12.9624893,8.3797064 13.1988995,8.61590752 C13.4370269,8.85210864 13.582422,9.17581283 13.582422,9.54012302 C13.582422,10.2618804 12.9899656,10.8492377 12.2704315,10.8492377 C11.9092334,10.8492377 11.5818082,10.7011116 11.3436808,10.4649104 L11.2675487,10.3842704 L9.43579925,10.6610775 C9.26350032,10.6879575 9.08261506,10.6473515 8.93092331,10.5392595 L5.8833502,8.3059293 L4.75052766,7.98222511 L2.47973079,11.672796 C2.57074584,11.8552371 2.6251259,12.0571233 2.6251259,12.2733074 C2.6251259,12.6313265 2.47686868,12.9618937 2.24045852,13.1975229 C2.00233109,13.433724 1.67490588,13.582422 1.31370779,13.582422 C0.594746143,13.582422 0,12.9887737 0,12.2733074 C0,11.55155 0.594173721,10.9579016 1.31370779,10.9579016 L1.31714232,10.9579016 L3.39217097,7.5841719 L2.200389,7.23987875 C1.96741337,7.45606282 1.65487112,7.5841719 1.31370779,7.5841719 C0.594746143,7.5841719 0,6.99052357 0,6.27505724 C3.55888819e-15,5.55158409 0.594173721,4.95793576 1.31370779,4.95793576 Z" id="Shape" fill="#FFFFFF" fill-rule="nonzero"></path>
    </g>
</svg>