<?xml version="1.0" encoding="UTF-8"?>
<svg width="16px" height="16px" viewBox="0 0 16 16" version="1.1" xmlns="http://www.w3.org/2000/svg" xmlns:xlink="http://www.w3.org/1999/xlink">
    <!-- Generator: Sketch 49.3 (51167) - http://www.bohemiancoding.com/sketch -->
    <title>项目详情-左侧其他已激活</title>
    <desc>Created with Sketch.</desc>
    <defs></defs>
    <g id="Page-4" stroke="none" stroke-width="1" fill="none" fill-rule="evenodd">
        <path d="M8,0 C3.58171425,0 0,3.58173259 0,8 C0,12.4182674 3.58173259,16 8,16 C12.4182674,16 16,12.4182857 16,8 C16,3.58171425 12.4182674,0 8,0 Z M4.3814302,8.98960174 C3.83488312,8.98960174 3.39182846,8.54654709 3.39182846,8 C3.39182846,7.45345291 3.8348831,7.01039826 4.3814302,7.01039826 C4.92797729,7.01039826 5.37103193,7.45345291 5.37103193,8 C5.37103193,8.54654709 4.92797727,8.98960174 4.3814302,8.98960174 Z M8,8.98960174 C7.45345292,8.98960174 7.01039826,8.54654709 7.01039826,8 C7.01039826,7.45345291 7.45345291,7.01039826 8,7.01039826 C8.54654708,7.01039826 8.98960174,7.45345291 8.98960174,8 C8.98960174,8.54654709 8.54654708,8.98960174 8,8.98960174 Z M11.6185698,8.98960174 C11.0720227,8.98960174 10.6289681,8.54654709 10.6289681,8 C10.6289681,7.45345291 11.0720227,7.01039826 11.6185698,7.01039826 C12.1651169,7.01039826 12.6081715,7.45345291 12.6081715,8 C12.6081715,8.54654709 12.1651169,8.98960174 11.6185698,8.98960174 Z" id="Shape-Copy-5" fill="#333333" fill-rule="nonzero"></path>
    </g>
</svg>