<?xml version="1.0" encoding="UTF-8"?>
<svg width="14px" height="14px" viewBox="0 0 14 14" version="1.1" xmlns="http://www.w3.org/2000/svg" xmlns:xlink="http://www.w3.org/1999/xlink">
    <!-- Generator: Sketch 49.3 (51167) - http://www.bohemiancoding.com/sketch -->
    <title>项目详情-主页</title>
    <desc>Created with Sketch.</desc>
    <defs></defs>
    <g id="Page-4" stroke="none" stroke-width="1" fill="none" fill-rule="evenodd">
        <path d="M12.7792079,4.85680809 L7.08118812,1.30532167 C3.17128713,3.68925584 1.21386139,4.88558271 1.21386139,4.89255838 L1.21386139,4.91610126 C1.23782421,4.90156311 1.25975771,4.88458814 1.27920792,4.86552767 C1.28415842,4.86116788 1.28316832,4.86203984 1.27920792,4.8690155 C1.27710857,4.87274467 1.2751276,4.87652462 1.27326733,4.88035096 L1.21386139,4.91610126 L1.21386139,12.9232949 L2.46138614,12.9232949 C2.79685811,12.9232949 3.06881188,13.1627986 3.06881188,13.4582414 C3.06881188,13.7536841 2.79685811,13.9931878 2.46138614,13.9931878 L1.12673267,13.9931878 C0.504950495,13.9931878 0,13.5136107 0,12.9232949 L0,4.89255838 C0,4.52807978 0.195049505,4.18888798 0.518811881,3.99182539 L7.09207921,0 L13.4920792,3.99095343 C13.8089109,4.18888798 14,4.52459195 14,4.88471076 L14,12.9241669 C14,13.5144827 13.4950495,13.9931878 12.8732673,13.9931878 L11.6326733,13.9931878 C11.2972013,13.9931878 11.0252475,13.7536841 11.0252475,13.4582414 C11.0252475,13.1627986 11.2972013,12.9232949 11.6326733,12.9232949 L12.7861386,12.9232949 C12.7871136,10.2347556 12.7851334,7.54621602 12.780198,4.85768005 L12.7792079,4.85680809 Z M8.71361386,14 L8.71361386,9.32368729 C8.71361386,8.50927818 7.96608911,7.85007766 7.04430693,7.85007766 C6.12153465,7.85007766 5.3740099,8.50927818 5.3740099,9.32368729 L5.3740099,14 L4.15915774,14 L4.15915842,9.32368729 C4.15863307,8.64941994 4.46233967,8.00259776 5.00343846,7.52557339 C5.54453724,7.04854903 6.27868373,6.7804159 7.04430693,6.78018475 C7.80975854,6.7806471 8.54365067,7.04888228 9.08453533,7.52588157 C9.62541999,8.00288086 9.92899071,8.64957094 9.92846535,9.32368729 L9.92846603,14 L8.71361386,14 Z" id="Combined-Shape" fill="#FFFFFF" fill-rule="nonzero"></path>
    </g>
</svg>