<?xml version="1.0" encoding="UTF-8"?>
<svg width="22px" height="22px" viewBox="0 0 22 22" version="1.1" xmlns="http://www.w3.org/2000/svg" xmlns:xlink="http://www.w3.org/1999/xlink">
    <!-- Generator: Sketch 49.3 (51167) - http://www.bohemiancoding.com/sketch -->
    <title>项目详情-github详情</title>
    <desc>Created with Sketch.</desc>
    <defs></defs>
    <g id="Page-4" stroke="none" stroke-width="1" fill="none" fill-rule="evenodd">
        <path d="M10.9990833,0.000939707043 C17.072506,0.000939707043 22,5.05192426 22,11.2775564 C22,16.2552429 18.8491541,20.4839742 14.4799567,21.9818847 C13.9216601,22.084314 13.7208934,21.7319197 13.7208934,21.4387277 C13.7208934,21.0712979 13.7355613,19.8534233 13.7355613,18.3404773 C13.7355613,17.2832945 13.3917826,16.6076372 12.9911659,16.2552429 C15.4407034,15.9761466 18.0185849,15.0213931 18.0185849,10.6902326 C18.0185849,9.45638277 17.5886324,8.4584022 16.8873239,7.66528018 C17.0019168,7.37114843 17.3741145,6.22657184 16.7727311,4.67039873 C15.855988,4.37626699 13.7502292,5.83001082 13.7502292,5.83001082 C11.9503652,5.32099462 10.0496348,5.32099462 8.24977082,5.83001082 C8.24977082,5.83001082 6.14401199,4.37626699 5.22726895,4.67039873 C4.6258855,6.22657184 4.99808318,7.37208814 5.11267605,7.66528018 C4.41045087,8.45840222 3.98141511,9.45638279 3.98141511,10.6902326 C3.98141511,15.0072973 6.54554546,15.9761466 8.99508292,16.2552429 C8.67972332,16.5493746 8.39369947,17.0483649 8.29285774,17.7672493 C7.66213851,18.061381 6.05783815,18.5603713 5.09892492,16.8275312 C4.49754147,15.7553129 3.40845072,15.6679191 3.40845069,15.6679191 C2.33402783,15.6528836 3.33694474,16.3576722 3.33694474,16.3576722 C4.05292108,16.695031 4.55437953,18.0021788 4.55437953,18.0021788 C5.19884989,20.0141151 8.26443869,19.3384578 8.26443871,19.3384578 C8.26443871,20.2781759 8.27910661,21.1586917 8.27910658,21.437788 C8.27910658,21.7319197 8.07833985,22.084314 7.52004335,21.980945 C3.1508459,20.4830344 0,16.2543032 0,11.2766167 C0,5.05098456 4.92749397,0 11.0009167,0 L10.9990833,0.000939707043 Z M4.16659722,16.1960407 C4.19501625,16.1368384 4.15192933,16.0635404 4.06667222,16.0203134 C3.98049838,15.9911821 3.9089924,16.0052779 3.88057338,16.0494446 C3.85215435,16.1086469 3.89524127,16.1819449 3.98049838,16.2251719 C4.05200433,16.2693387 4.13817819,16.2543032 4.16659722,16.1960407 Z M4.61030085,16.6959707 C4.66805566,16.6518039 4.65338777,16.5493746 4.58188182,16.4610412 C4.51037587,16.3877432 4.41045087,16.3586119 4.35269606,16.4168744 C4.29494125,16.4610412 4.30960914,16.5634704 4.38111509,16.6518039 C4.45262104,16.7251019 4.55254604,16.7542332 4.61030085,16.6959707 Z M5.04025335,17.3565925 C5.11175929,17.2973902 5.11175929,17.1808652 5.04025335,17.0774962 C4.98249853,16.9750669 4.8688224,16.9309002 4.79639969,16.9891627 C4.72489374,17.0333295 4.72489374,17.1507942 4.79639969,17.2532235 C4.86790564,17.3556527 4.98249853,17.3998195 5.04025335,17.3556527 L5.04025335,17.3565925 Z M5.64163679,17.9730475 C5.6993916,17.9138453 5.67005582,17.7822848 5.58388198,17.6939512 C5.48395698,17.591522 5.35469622,17.5764865 5.2969414,17.6497845 C5.22543546,17.7089867 5.25385448,17.8405473 5.35469622,17.9288808 C5.45462122,18.03131 5.58388198,18.0463455 5.64163679,17.9730475 Z M6.45845486,18.3404773 C6.48687389,18.2521438 6.40070005,18.1497145 6.27235602,18.1055478 C6.15776313,18.0764165 6.02850237,18.1205832 6.00008334,18.207977 C5.97166431,18.2953708 6.05783815,18.3987398 6.18618218,18.427871 C6.30077507,18.4720378 6.43003584,18.427871 6.45845486,18.3395376 L6.45845486,18.3404773 Z M7.36053004,18.4137753 C7.36053004,18.311346 7.24593715,18.238048 7.11667639,18.2521438 C6.98741563,18.2521438 6.88749063,18.3254418 6.88749063,18.4137753 C6.88749063,18.5162046 6.98741563,18.5895026 7.13134428,18.5754068 C7.26060504,18.5754068 7.36053004,18.5021088 7.36053004,18.4137753 Z M8.19109925,18.2671793 C8.17643136,18.1788458 8.06183849,18.1205832 7.93349446,18.134679 C7.8042337,18.1638103 7.71897659,18.2521438 7.73272773,18.3545731 C7.74739562,18.4429065 7.86198849,18.5011691 7.99033252,18.4720378 C8.11867654,18.4429065 8.20485038,18.354573 8.19109925,18.2662395 L8.19109925,18.2671793 Z" id="Shape" fill="#333333" fill-rule="nonzero"></path>
    </g>
</svg>