<?xml version="1.0" encoding="UTF-8"?>
<svg width="16px" height="16px" viewBox="0 0 16 16" version="1.1" xmlns="http://www.w3.org/2000/svg" xmlns:xlink="http://www.w3.org/1999/xlink">
    <!-- Generator: Sketch 49.3 (51167) - http://www.bohemiancoding.com/sketch -->
    <title>项目详情-左侧btt已激活</title>
    <desc>Created with Sketch.</desc>
    <defs></defs>
    <g id="Page-4" stroke="none" stroke-width="1" fill="none" fill-rule="evenodd">
        <path d="M16,8 C16,9.08333333 15.7886905,10.1190476 15.3660714,11.1071429 C14.9434524,12.0952381 14.375,12.9464286 13.6607143,13.6607143 C12.9464286,14.375 12.0952381,14.9434524 11.1071429,15.3660714 C10.1190476,15.7886905 9.08333333,16 8,16 C6.91666667,16 5.88095238,15.7886905 4.89285714,15.3660714 C3.9047619,14.9434524 3.05357143,14.375 2.33928572,13.6607143 C1.62500001,12.9464286 1.05654763,12.0952381 0.633928578,11.1071429 C0.211309526,10.1190476 -7.40148672e-17,9.08333333 0,8 C7.40148672e-17,6.91666667 0.211309526,5.88095238 0.633928578,4.89285714 C1.05654763,3.9047619 1.62500001,3.05357143 2.33928572,2.33928572 C3.05357143,1.62500001 3.9047619,1.05654763 4.89285714,0.633928578 C5.88095238,0.211309526 6.91666667,5.18104078e-16 8,0 C9.08333333,-5.18104078e-16 10.1190476,0.211309526 11.1071429,0.633928578 C12.0952381,1.05654763 12.9464286,1.62500001 13.6607143,2.33928572 C14.375,3.05357143 14.9434524,3.9047619 15.3660714,4.89285714 C15.7886905,5.88095238 16,6.91666667 16,8 Z M4.83548558,11.0102777 L5.92665573,12.278855 C6.0661024,12.4411554 6.2961894,12.439606 6.43679812,12.278855 L7.54694851,11.0102777 L11.8066568,11.0102777 C12.0212497,11.0102777 12.1951707,10.8363567 12.1951707,10.6202144 L12.1951707,5.59045066 C12.1951707,5.37469569 12.0251232,5.2 11.8070441,5.2 L4.06155659,5.2 C3.84735102,5.2 3.67343004,5.37392098 3.67343004,5.59045066 L3.67343004,10.6202144 C3.67343004,10.835582 3.8450269,11.0102777 4.06039453,11.0102777 L4.83548558,11.0102777 Z" id="Combined-Shape-Copy" fill="#333333" fill-rule="nonzero"></path>
    </g>
</svg>