<?xml version="1.0" encoding="UTF-8"?>
<svg width="22px" height="22px" viewBox="0 0 22 22" version="1.1" xmlns="http://www.w3.org/2000/svg" xmlns:xlink="http://www.w3.org/1999/xlink">
    <!-- Generator: Sketch 49.3 (51167) - http://www.bohemiancoding.com/sketch -->
    <title>项目详情-reddit详情</title>
    <desc>Created with Sketch.</desc>
    <defs></defs>
    <g id="Page-4" stroke="none" stroke-width="1" fill="none" fill-rule="evenodd">
        <path d="M15.0687733,17.5177165 C15.2868649,17.7486877 15.2868649,17.972441 15.0687733,18.1889764 C14.2236679,19.0839895 12.8674102,19.5314961 11,19.5314961 C9.13258982,19.5314961 7.77633207,19.0839895 6.93122675,18.1889764 C6.71313506,17.972441 6.71313506,17.7486877 6.93122675,17.5177165 C7.01301113,17.4311024 7.11524161,17.3877953 7.23791822,17.3877953 C7.36059482,17.3877952 7.46282529,17.4311023 7.54460965,17.5177165 C8.19888473,18.2250656 9.35068151,18.5787402 11,18.5787402 C12.6356877,18.5787402 13.7874845,18.2250656 14.4553904,17.5177165 C14.5371747,17.4311024 14.6394052,17.3877953 14.7620818,17.3877953 C14.8847584,17.3877952 14.9869888,17.4311023 15.0687733,17.5177165 Z M8.79182155,13.5984252 C8.79182155,14.1325459 8.61462204,14.5872703 8.26022303,14.9625984 C7.90582402,15.3379265 7.47645599,15.5255905 6.97211894,15.5255905 C6.46778189,15.5255905 6.03500618,15.3379265 5.67379181,14.9625984 C5.31257744,14.5872703 5.13197025,14.1325459 5.13197025,13.5984252 C5.13197025,13.0498687 5.31257744,12.5879265 5.67379181,12.2125984 C6.03500618,11.8372704 6.46778189,11.6496063 6.97211894,11.6496063 C7.47645599,11.6496063 7.90582402,11.8408792 8.26022303,12.2234252 C8.61462204,12.6059711 8.79182155,13.0643045 8.79182155,13.5984252 Z M16.8680297,13.5984252 C16.8680297,14.1325459 16.6874226,14.5872703 16.3262082,14.9625984 C15.9649938,15.3379265 15.5322181,15.5255905 15.0278811,15.5255905 C14.523544,15.5255905 14.094176,15.3379265 13.739777,14.9625984 C13.385378,14.5872703 13.2081785,14.1325459 13.2081785,13.5984252 C13.2081785,13.0643044 13.385378,12.6059711 13.739777,12.2234252 C14.094176,11.8408793 14.523544,11.6496063 15.0278811,11.6496063 C15.5322181,11.6496063 15.9649938,11.8372703 16.3262082,12.2125984 C16.6874226,12.5879265 16.8680297,13.0498688 16.8680297,13.5984252 Z M22,11 C22,10.2926509 21.7614622,9.6863517 21.2843866,9.18110236 C20.807311,8.67585302 20.228005,8.42322834 19.5464684,8.42322834 C18.8649319,8.42322834 18.2788104,8.68307086 17.7881041,9.20275588 C16.0161091,7.90354329 13.8965304,7.21062992 11.429368,7.12401576 L12.7174721,0.996062982 L16.8066914,1.97047244 C16.8066914,2.50459317 16.983891,2.95931758 17.33829,3.33464567 C17.692689,3.70997376 18.122057,3.89763779 18.6263941,3.89763777 C19.1307311,3.89763774 19.5635068,3.70636478 19.9247212,3.32381887 C20.2859356,2.94127297 20.4665428,2.48293964 20.4665428,1.94881888 C20.4665428,1.41469813 20.2859356,0.956364796 19.9247212,0.573818893 C19.5635068,0.19127299 19.1307311,2.52624704e-08 18.6263941,0 C17.8903346,0 17.3451053,0.360892382 16.9907063,1.08267714 L12.472119,0.0216535217 C12.2131351,-0.0505249597 12.0427509,0.0649606029 11.9609665,0.36811021 L10.5501859,7.12401576 C8.09665425,7.22506562 5.9907063,7.92519685 4.232342,9.22440944 C3.75526641,8.69028871 3.16232961,8.42322834 2.45353158,8.42322834 C1.77199502,8.42322834 1.19268895,8.67585302 0.715613384,9.18110236 C0.238537818,9.6863517 2.38537794e-08,10.2926509 0,11 C0,11.5052493 0.126084256,11.9671916 0.378252768,12.3858268 C0.63042128,12.8044619 0.967781872,13.1220472 1.39033454,13.3385827 C1.30855017,13.7283465 1.26765798,14.1325459 1.26765798,14.5511811 C1.26765798,16.6010499 2.22180916,18.3549869 4.13011151,19.8129921 C6.03841387,21.2709973 8.33519207,22 11.0204461,22 C13.7193309,22 16.0229244,21.2709974 17.9312268,19.8129921 C19.8395291,18.3549869 20.7936803,16.6010499 20.7936803,14.5511811 C20.7936803,14.0892389 20.7459728,13.6778215 20.6505576,13.3169291 C21.0594796,13.1003937 21.3866171,12.7864173 21.6319703,12.375 C21.8773234,11.9635827 22,11.5052493 22,11 Z" id="Shape" fill="#FF4200" fill-rule="nonzero"></path>
    </g>
</svg>