<?xml version="1.0" encoding="UTF-8"?>
<svg width="22px" height="22px" viewBox="0 0 22 22" version="1.1" xmlns="http://www.w3.org/2000/svg" xmlns:xlink="http://www.w3.org/1999/xlink">
    <!-- Generator: Sketch 49.3 (51167) - http://www.bohemiancoding.com/sketch -->
    <title>项目详情-btt详情</title>
    <desc>Created with Sketch.</desc>
    <defs></defs>
    <g id="Page-4" stroke="none" stroke-width="1" fill="none" fill-rule="evenodd">
        <path d="M22,11 C22,12.4895833 21.7094494,13.9136905 21.1283482,15.2723214 C20.547247,16.6309524 19.765625,17.8013393 18.7834821,18.7834821 C17.8013393,19.765625 16.6309524,20.547247 15.2723214,21.1283482 C13.9136905,21.7094494 12.4895833,22 11,22 C9.51041667,22 8.08630952,21.7094494 6.72767857,21.1283482 C5.36904761,20.547247 4.19866071,19.765625 3.21651786,18.7834821 C2.23437501,17.8013393 1.45275299,16.6309524 0.871651795,15.2723214 C0.290550598,13.9136905 -1.01770442e-16,12.4895833 0,11 C1.01770442e-16,9.51041667 0.290550598,8.08630952 0.871651795,6.72767857 C1.45275299,5.36904761 2.23437501,4.19866071 3.21651786,3.21651786 C4.19866071,2.23437501 5.36904761,1.45275299 6.72767857,0.871651795 C8.08630952,0.290550598 9.51041667,7.12393107e-16 11,0 C12.4895833,-7.12393107e-16 13.9136905,0.290550598 15.2723214,0.871651795 C16.6309524,1.45275299 17.8013393,2.23437501 18.7834821,3.21651786 C19.765625,4.19866071 20.547247,5.36904761 21.1283482,6.72767857 C21.7094494,8.08630952 22,9.51041667 22,11 Z M6.64879267,15.1391318 L8.14915163,16.8834256 C8.3408908,17.1065887 8.65726042,17.1044583 8.85059741,16.8834256 L10.3770542,15.1391318 L16.2341531,15.1391318 C16.5292183,15.1391318 16.7683597,14.8999905 16.7683597,14.6027948 L16.7683597,7.68686966 C16.7683597,7.39020657 16.5345444,7.15 16.2346857,7.15 L5.58464031,7.15 C5.29010765,7.15 5.0509663,7.38914135 5.0509663,7.68686966 L5.0509663,14.6027948 C5.0509663,14.8989253 5.28691199,15.1391318 5.58304248,15.1391318 L6.64879267,15.1391318 Z" id="Combined-Shape" fill="#333333" fill-rule="nonzero"></path>
    </g>
</svg>