<?xml version="1.0" encoding="UTF-8" standalone="no"?>
<svg width="12px" height="12px" viewBox="0 0 12 12" version="1.1" xmlns="http://www.w3.org/2000/svg" xmlns:xlink="http://www.w3.org/1999/xlink">
    <!-- Generator: Sketch 49.3 (51167) - http://www.bohemiancoding.com/sketch -->
    <title>Group 3</title>
    <desc>Created with Sketch.</desc>
    <defs></defs>
    <g id="Page-2" stroke="none" stroke-width="1" fill="none" fill-rule="evenodd">
        <g id="Group-3" transform="translate(-2.000000, -1.000000)" fill="#FF5F5F">
            <path d="M13.3998737,8 C13.3998737,8.22940522 13.2139041,8.4153749 12.9844988,8.4153749 C12.7550936,8.4153749 12.5691239,8.22940522 12.5691239,8 C12.5691239,5.47654253 10.5234575,3.43087607 8,3.43087607 C5.47654253,3.43087607 3.43087607,5.47654253 3.43087607,8 C3.43087607,10.5234575 5.47654253,12.5691239 8,12.5691239 C8.22940522,12.5691239 8.4153749,12.7550936 8.4153749,12.9844988 C8.4153749,13.2139041 8.22940522,13.3998737 8,13.3998737 C5.01773209,13.3998737 2.60012627,10.9822679 2.60012627,8 C2.60012627,5.01773209 5.01773209,2.60012627 8,2.60012627 C10.9822679,2.60012627 13.3998737,5.01773209 13.3998737,8 Z" id="Oval" stroke="#FF5F5F" fill-rule="nonzero" transform="translate(8.000000, 8.000000) rotate(-315.000000) translate(-8.000000, -8.000000) "></path>
            <path d="M10.695064,8 C10.695064,8.18057839 10.5486763,8.32696609 10.3680979,8.32696609 C10.1875195,8.32696609 10.0411318,8.18057839 10.0411318,8 C10.0411318,6.87271401 9.12728599,5.95886816 8,5.95886816 C6.87271401,5.95886816 5.95886816,6.87271401 5.95886816,8 C5.95886816,9.12728599 6.87271401,10.0411318 8,10.0411318 C8.18057839,10.0411318 8.32696609,10.1875195 8.32696609,10.3680979 C8.32696609,10.5486763 8.18057839,10.695064 8,10.695064 C6.51155724,10.695064 5.30493597,9.48844276 5.30493597,8 C5.30493597,6.51155724 6.51155724,5.30493597 8,5.30493597 C9.48844276,5.30493597 10.695064,6.51155724 10.695064,8 Z" id="Oval" stroke="#FF5F5F" fill-rule="nonzero" transform="translate(8.000000, 8.000000) rotate(-315.000000) translate(-8.000000, -8.000000) "></path>
            <circle id="Oval-2" cx="8" cy="8" r="1"></circle>
        </g>
    </g>
</svg>