<?xml version="1.0" encoding="UTF-8" standalone="no"?>
<svg width="30px" height="29px" viewBox="0 0 30 29" version="1.1" xmlns="http://www.w3.org/2000/svg" xmlns:xlink="http://www.w3.org/1999/xlink">
    <!-- Generator: Sketch 47 (45396) - http://www.bohemiancoding.com/sketch -->
    <title>github (1)</title>
    <desc>Created with Sketch.</desc>
    <defs></defs>
    <g id="Page-1" stroke="none" stroke-width="1" fill="none" fill-rule="evenodd">
        <g id="github-(1)" fill-rule="nonzero" fill="#2C2C2C">
            <path d="M30,14.8628735 C30,18.1013285 29.0459923,21.013626 27.137977,23.599766 C25.2299617,26.185906 22.7662057,27.9760565 19.7467089,28.9702176 C19.3951009,29.0346234 19.1376438,28.989209 18.9743377,28.8339746 C18.8110315,28.6787401 18.7293785,28.4855228 18.7293785,28.2543225 L18.7293785,24.1719866 C18.7293785,22.9202023 18.3911015,22.0044842 17.7145476,21.4248321 C18.4560907,21.3472149 19.1234795,21.230789 19.7167139,21.0755546 C20.3099484,20.9203201 20.9215131,20.668477 21.5514081,20.3200252 C22.1813031,19.9715734 22.7087152,19.5422015 23.1336444,19.0319095 C23.5585736,18.5216175 23.9035162,17.844531 24.168472,17.0006501 C24.4334278,16.1567692 24.5667389,15.1857281 24.5684053,14.0875269 C24.5684053,12.5269252 24.0543243,11.1983495 23.0261623,10.1017997 C23.5077488,8.92763269 23.4560907,7.61144268 22.8711882,6.15322964 C22.506249,6.03762952 21.9788369,6.10864103 21.2889519,6.36626417 C20.5990669,6.62388732 20,6.90793335 19.4917514,7.21840225 L18.7493751,7.68162847 C17.5379104,7.3463881 16.2881187,7.17876792 15.0000001,7.17876792 C13.7118814,7.17876792 12.4620897,7.3463881 11.250625,7.68162847 C11.0423263,7.53960545 10.7657058,7.36537954 10.4207633,7.15895075 C10.0758207,6.95252195 9.53257794,6.70398168 8.79103487,6.41332993 C8.04949181,6.12267818 7.48958513,6.03597808 7.11131483,6.15322964 C6.53807704,7.61144268 6.49225135,8.92763269 6.97383775,10.1017997 C5.94567578,11.1983495 5.4315948,12.5269252 5.4315948,14.0875269 C5.4315948,15.1840767 5.56490591,16.1518149 5.83152813,16.9907415 C6.09815036,17.8296682 6.43976008,18.5067546 6.85635731,19.0220009 C7.27295453,19.5372472 7.79703385,19.9690962 8.42859526,20.317548 C9.06015667,20.6659999 9.6717214,20.917843 10.2632895,21.0730774 C10.8548575,21.2283119 11.5222463,21.3447377 12.2654558,21.422355 C11.7455424,21.8864069 11.426429,22.5511076 11.3081153,23.4164572 C11.0348276,23.5452687 10.7415431,23.6418774 10.428262,23.7062832 C10.1149809,23.770689 9.74420934,23.8028918 9.31594739,23.8028918 C8.88768544,23.8028918 8.46108987,23.6641717 8.03616069,23.3867314 C7.6112315,23.1092911 7.2496251,22.7063421 6.95134149,22.1778844 C6.70471593,21.7650268 6.38893522,21.4297864 6.00399938,21.1721632 C5.61906354,20.9145401 5.29661728,20.7601314 5.0366606,20.708937 L4.64672558,20.6519627 C4.37343779,20.6519627 4.18430264,20.6808627 4.07932014,20.7386628 C3.97433763,20.7964628 3.94184305,20.8707772 3.9818364,20.9616059 C4.02182974,21.0524345 4.08015335,21.1424375 4.15680724,21.2316147 C4.23346112,21.320792 4.31844695,21.3984092 4.41176473,21.4644664 L4.54924181,21.5610751 C4.83586069,21.6898867 5.11914681,21.9351241 5.39910015,22.2967873 C5.67905349,22.6584506 5.88401933,22.9870852 6.01399767,23.2826913 L6.20896518,23.7285775 C6.37893684,24.2190523 6.66555573,24.6153956 7.06882187,24.9176073 C7.472088,25.2198191 7.9078487,25.4130364 8.37610397,25.4972594 C8.84435924,25.5814824 9.29678383,25.6268967 9.73337774,25.6335024 C10.1699716,25.6401081 10.531578,25.6178138 10.8181969,25.5666195 L11.2681219,25.489828 C11.2681219,25.9803028 11.2714547,26.5541748 11.2781203,27.2114441 C11.2847858,27.8687134 11.2881186,28.2171652 11.2881186,28.2567996 C11.2881186,28.4896513 11.2031327,28.6828686 11.0331611,28.8364517 C10.8631894,28.9900347 10.6032328,29.035449 10.2532911,28.9726947 C7.23379434,27.9785336 4.77003831,26.188383 2.86202297,23.6022431 C0.954007634,21.0161031 -2.27826616e-08,18.1038056 0,14.8653506 C0,12.1685648 0.670721544,9.68151063 2.01216463,7.40418813 C3.35360772,5.12686563 5.17330443,3.32350365 7.47125476,1.99410219 C9.76920509,0.66470073 12.2787868,4.8128221e-16 14.9999999,0 C17.7212131,-4.8128221e-16 20.2307948,0.66470073 22.5287451,1.99410219 C24.8266955,3.32350365 26.6463922,5.12686563 27.9878353,7.40418813 C29.3292784,9.68151063 29.9999999,12.1685648 29.9999999,14.8653506 L30,14.8628735 Z" id="Shape"></path>
        </g>
    </g>
</svg>