<?xml version="1.0" encoding="UTF-8" standalone="no"?>
<svg width="70px" height="70px" viewBox="0 0 70 70" version="1.1" xmlns="http://www.w3.org/2000/svg" xmlns:xlink="http://www.w3.org/1999/xlink">
    <!-- Generator: Sketch 47 (45396) - http://www.bohemiancoding.com/sketch -->
    <title>Fill 1</title>
    <desc>Created with Sketch.</desc>
    <defs></defs>
    <g id="Page-1" stroke="none" stroke-width="1" fill="none" fill-rule="evenodd">
        <path d="M0.00882067992,4.20876601 C-0.0296628496,2.16765881 1.40162842,0.394456178 3.40277196,0 L3.89565717,0 L66.1131635,0 C67.1470383,0.124331403 68.1076464,0.595014572 68.8395736,1.33508245 C69.4153464,1.98412198 69.8061022,2.7759946 69.9711374,3.62781273 L69.9711374,55.8647637 L69.4486494,55.8647637 C62.6970102,53.9198653 55.7855163,52.5796024 48.7970553,51.8595164 C48.1591168,51.8595164 48.1295141,51.8595164 48.1295141,51.1046471 L48.1295141,43.6469831 L48.1295141,22.4329375 C48.1295141,21.794999 48.1295141,21.7661363 47.462713,21.7661363 L42.7344193,21.7661363 C42.0387555,21.7661363 42.0387555,21.7661363 42.0387555,22.4618001 L42.0387555,30.8201267 C42.0387555,31.1442764 41.9588282,31.4625056 41.8071143,31.7489119 L37.2519965,40.6289863 C37.2519965,40.6289863 37.2519965,40.9190929 36.9337673,41.006421 C36.614798,41.0930089 36.9337673,40.657849 36.9337673,40.5127957 L36.9337673,16.6870505 C36.9337673,15.9906466 36.9337673,15.9906466 37.6294311,15.9906466 L50.8270615,15.9906466 C51.6396561,15.9906466 51.6396561,15.9906466 51.6396561,16.8032411 L51.6396561,48.2605663 L51.6396561,48.7541915 C51.6396561,48.8999849 51.6396561,49.2182141 52.1036786,49.2182141 L56.9474229,49.2182141 C57.2952548,49.2182141 57.4410481,49.0739009 57.4114454,48.7253289 C57.3818427,48.377497 57.4114454,48.4936877 57.4114454,48.377497 L57.4114454,13.552863 C57.4114454,12.7114058 57.4114454,12.7114058 56.5707283,12.7114058 L9.26188934,12.7114058 C8.91405743,12.7114058 8.79786678,12.7114058 8.79786678,13.1754284 C8.71127884,13.7556416 8.71127884,14.5105108 8.71127884,15.3231054 C8.71127884,16.1356999 8.71127884,16.0195092 9.43580529,16.0195092 L23.7938622,16.0195092 C24.3452127,16.0195092 24.3740754,16.0195092 24.1705567,16.5708598 L19.8204377,27.628214 C19.8204377,27.628214 19.8204377,27.9464431 19.6169191,27.9760459 C19.4141405,28.0049085 19.4430031,27.8021299 19.3852778,27.6859392 C18.42837,25.6544529 17.4995849,23.6229666 16.4849518,21.5914803 C16.3894831,21.2762114 16.0875354,21.0704725 15.7589452,21.097855 L10.7701477,21.097855 C10.2195372,21.097855 10.1899345,21.097855 10.3927131,21.6492056 L16.1941051,36.7399296 C16.3621005,37.1284653 16.3621005,37.5695457 16.1941051,37.9588214 L8.39156951,58.0405633 C8.39156951,58.0405633 8.21765356,58.3025473 8.39156951,58.4757232 C8.51442078,58.5164269 8.64615286,58.5164269 8.76900413,58.4757232 C11.0047492,57.7156735 13.2804579,57.0762548 15.5850293,56.5604275 C15.9069588,56.5041823 16.1674627,56.2673606 16.2518304,55.9513516 C17.2383409,53.2819268 18.253714,50.6406246 19.1528965,47.9711997 L19.5007284,47.0135519 C19.5007284,46.839636 19.6746444,46.8100332 19.7619724,47.0135519 L19.7619724,47.3325212 L22.6622984,54.7331999 C22.7303846,55.0455086 23.039733,55.2445868 23.3527817,55.1765006 C23.3646228,55.1742804 23.3757238,55.17058 23.3875649,55.1676198 C25.0986018,54.9359785 26.8103788,54.7909252 28.5502784,54.7028571 C29.5367889,54.7028571 29.5367889,54.7028571 29.188957,53.7755521 L23.2136489,37.9292187 C23.0989384,37.6605741 23.0989384,37.3571463 23.2136489,37.0885016 L30.464834,18.9509181 C30.464834,18.9509181 30.464834,18.6600714 30.6972153,18.6312088 C30.74828,18.8110453 30.74828,19.0027229 30.6972153,19.1825594 L30.6972153,32.1263465 L30.6972153,48.8415196 C30.6972153,49.6252514 30.6972153,49.6252514 31.4802071,49.6252514 L33.8299226,49.6252514 C34.3805331,49.6252514 34.4093958,49.6252514 34.1488919,50.1758619 L31.915367,54.0071933 C31.6837258,54.4134906 31.7125884,54.5000785 32.176611,54.5000785 L36.7302486,54.5000785 C37.1128637,54.5444826 37.4784572,54.3320831 37.6294311,53.9783307 C38.9349108,51.6848603 40.2685131,49.3928701 41.5739929,47.1001398 C41.6539202,46.9047619 41.7841722,46.7352864 41.9514275,46.6065146 C42.1253434,46.7515679 41.9514275,46.9550865 41.9514275,47.1290025 L41.9514275,53.8910027 C41.9514275,54.8775132 41.9514275,54.8775132 42.937938,54.9071159 C45.1107773,55.0151658 47.2732556,55.2875108 49.4061312,55.7197104 C55.1512781,56.8890176 60.7395307,58.7295664 66.0554382,61.2043534 C67.4023618,61.7616245 68.7196826,62.3914223 70,63.0907864 L70,66.3692871 C69.8675279,67.1182358 69.5589195,67.8235205 69.1008175,68.4296361 C68.2371583,69.4694315 66.9405594,70.0481645 65.5906756,69.9978399 L4.09843576,69.9978399 C3.00609558,69.977118 1.96482008,69.529377 1.19810976,68.7493454 C0.361092989,67.8361017 -0.0681463792,66.6201701 0.00882067992,65.3827767 L0.00882067992,4.64392592" id="Fill-1" fill="#008AFF"></path>
    </g>
</svg>