<?xml version="1.0" encoding="UTF-8"?>
<svg width="18px" height="18px" viewBox="0 0 18 18" version="1.1" xmlns="http://www.w3.org/2000/svg" xmlns:xlink="http://www.w3.org/1999/xlink">
    <!-- Generator: Sketch 49.3 (51167) - http://www.bohemiancoding.com/sketch -->
    <title>历史价格-返回图表</title>
    <desc>Created with Sketch.</desc>
    <defs></defs>
    <g id="Page-4" stroke="none" stroke-width="1" fill="none" fill-rule="evenodd">
        <g id="Group-6" fill="#000000" fill-rule="nonzero">
            <g id="返回-(1)">
                <path d="M9,0.01161708 C4.03375176,0.01161708 0.00779912,4.01794272 0.00779912,8.95997954 C0.00779912,13.9020164 4.03375176,17.9083625 9,17.9083625 C13.9662482,17.9083625 17.9922009,13.9020368 17.9922009,8.96 C17.9922009,4.01796318 13.9662687,0.01161708 9,0.01161708 Z M9,16.7919149 C4.6745461,16.7919149 1.16808508,13.2854539 1.16808508,8.96 C1.16808508,4.6345461 4.6745461,1.12808508 9,1.12808508 C13.3254539,1.12808508 16.8319149,4.6345461 16.8319149,8.96 C16.8319149,13.2854539 13.3254539,16.7919149 9,16.7919149 Z" id="Shape"></path>
                <path d="M7.39963098,5.67891194 L4.5519745,8.52656842 C4.54384944,8.53381342 4.53586766,8.54128356 4.52807006,8.5490607 C4.41515846,8.6619723 4.35877428,8.81082242 4.35885614,8.95965208 C4.35885614,8.95977488 4.35885614,8.9598772 4.35885614,8.96 C4.35885614,8.9601228 4.35885614,8.96022512 4.35885614,8.96034792 C4.3587538,9.10917758 4.41515844,9.2580277 4.52807006,9.3709393 C4.53586766,9.3787369 4.54384944,9.38618656 4.5519745,9.39343158 L7.39963098,12.2410881 C7.62524954,12.4667066 7.9944584,12.4667066 8.22007696,12.2410881 C8.44569552,12.0154695 8.44569552,11.6462606 8.22007696,11.4206421 L6.3395881,9.54015322 L13.0609906,9.54015322 C13.380078,9.54015322 13.6411234,9.27908734 13.6411234,8.96002048 C13.6411234,8.64093314 13.3800575,8.37988774 13.0609906,8.37988774 L6.33958808,8.37988772 L8.22007694,6.49939886 C8.4456955,6.2737803 8.4456955,5.90457144 8.22007694,5.67895288 C7.9944584,5.45329338 7.62524952,5.45329338 7.39963098,5.67891194 Z" id="Shape"></path>
            </g>
        </g>
    </g>
</svg>