<?xml version="1.0" encoding="UTF-8" standalone="no"?>
<svg width="180px" height="30px" viewBox="0 0 180 30" version="1.1" xmlns="http://www.w3.org/2000/svg" xmlns:xlink="http://www.w3.org/1999/xlink">
    <!-- Generator: Sketch 47 (45396) - http://www.bohemiancoding.com/sketch -->
    <title>Page 1 Copy</title>
    <desc>Created with Sketch.</desc>
    <defs>
        <polygon id="path-1" points="29.5580312 0.129375 0 0.129375 0 29.6875 29.5580312 29.6875"></polygon>
    </defs>
    <g id="Page-1" stroke="none" stroke-width="1" fill="none" fill-rule="evenodd">
        <g id="Page-1-Copy">
            <g id="Group-3" transform="translate(0.000000, 0.183000)">
                <mask id="mask-2" fill="white">
                    <use xlink:href="#path-1"></use>
                </mask>
                <g id="Clip-2"></g>
                <path d="M0.00365625,1.90646875 C-0.01259375,1.04459375 0.59178125,0.29584375 1.43678125,0.12928125 L1.64490625,0.12928125 L27.9167812,0.12928125 C28.3533437,0.18178125 28.7589687,0.38053125 29.0680312,0.69303125 C29.3111562,0.96709375 29.4761562,1.30146875 29.5458437,1.66115625 L29.5458437,23.7186562 L29.3252188,23.7186562 C26.4742812,22.8974062 23.5558438,22.3314687 20.6049062,22.0274062 C20.3355312,22.0274062 20.3230312,22.0274062 20.3230312,21.7086562 L20.3230312,18.5595937 L20.3230312,9.60178125 C20.3230312,9.33240625 20.3230312,9.32021875 20.0414687,9.32021875 L18.0449062,9.32021875 C17.7511563,9.32021875 17.7511563,9.32021875 17.7511563,9.61396875 L17.7511563,13.1433437 C17.7511563,13.2802187 17.7174062,13.4145937 17.6533437,13.5355312 L15.7299062,17.2852187 C15.7299062,17.2852187 15.7299062,17.4077187 15.5955312,17.4445937 C15.4608437,17.4811562 15.5955312,17.2974062 15.5955312,17.2361562 L15.5955312,7.17553125 C15.5955312,6.88146875 15.5955312,6.88146875 15.8892812,6.88146875 L21.4620937,6.88146875 C21.8052187,6.88146875 21.8052187,6.88146875 21.8052187,7.22459375 L21.8052187,20.5077187 L21.8052187,20.7161562 C21.8052187,20.7777187 21.8052187,20.9120937 22.0011562,20.9120937 L24.0464687,20.9120937 C24.1933437,20.9120937 24.2549062,20.8511562 24.2424063,20.7039687 C24.2299062,20.5570937 24.2424063,20.6061562 24.2424063,20.5570937 L24.2424063,5.85209375 C24.2424063,5.49678125 24.2424063,5.49678125 23.8874062,5.49678125 L3.91084375,5.49678125 C3.76396875,5.49678125 3.71490625,5.49678125 3.71490625,5.69271875 C3.67834375,5.93771875 3.67834375,6.25646875 3.67834375,6.59959375 C3.67834375,6.94271875 3.67834375,6.89365625 3.98428125,6.89365625 L10.0470938,6.89365625 C10.2799062,6.89365625 10.2920937,6.89365625 10.2061562,7.12646875 L8.36928125,11.7955312 C8.36928125,11.7955312 8.36928125,11.9299062 8.28334375,11.9424062 C8.19771875,11.9545937 8.20990625,11.8689687 8.18553125,11.8199062 C7.78146875,10.9620937 7.38928125,10.1042812 6.96084375,9.24646875 C6.92053125,9.11334375 6.79303125,9.02646875 6.65428125,9.03803125 L4.54771875,9.03803125 C4.31521875,9.03803125 4.30271875,9.03803125 4.38834375,9.27084375 L6.83803125,15.6430312 C6.90896875,15.8070937 6.90896875,15.9933437 6.83803125,16.1577187 L3.54334375,24.6374062 C3.54334375,24.6374062 3.46990625,24.7480312 3.54334375,24.8211562 C3.59521875,24.8383437 3.65084375,24.8383437 3.70271875,24.8211562 C4.64678125,24.5002187 5.60771875,24.2302187 6.58084375,24.0124062 C6.71678125,23.9886562 6.82678125,23.8886562 6.86240625,23.7552187 C7.27896875,22.6280312 7.70771875,21.5127187 8.08740625,20.3855312 L8.23428125,19.9811562 C8.23428125,19.9077187 8.30771875,19.8952187 8.34459375,19.9811562 L8.34459375,20.1158437 L9.56928125,23.2408437 C9.59803125,23.3727187 9.72865625,23.4567812 9.86084375,23.4280312 C9.86584375,23.4270937 9.87053125,23.4255312 9.87553125,23.4242812 C10.5980312,23.3264687 11.3208437,23.2652187 12.0555312,23.2280312 C12.4720937,23.2280312 12.4720937,23.2280312 12.3252187,22.8364687 L9.80209375,16.1452187 C9.75365625,16.0317812 9.75365625,15.9036562 9.80209375,15.7902187 L12.8639687,8.13146875 C12.8639687,8.13146875 12.8639687,8.00865625 12.9620937,7.99646875 C12.9836562,8.07240625 12.9836562,8.15334375 12.9620937,8.22928125 L12.9620937,13.6949062 L12.9620937,20.7530312 C12.9620937,21.0839687 12.9620937,21.0839687 13.2927187,21.0839687 L14.2849062,21.0839687 C14.5174062,21.0839687 14.5295937,21.0839687 14.4195937,21.3164687 L13.4764687,22.9342812 C13.3786562,23.1058437 13.3908437,23.1424062 13.5867812,23.1424062 L15.5095937,23.1424062 C15.6711562,23.1611562 15.8255312,23.0714687 15.8892812,22.9220937 C16.4405312,21.9536562 17.0036563,20.9858437 17.5549062,20.0177187 C17.5886562,19.9352187 17.6436562,19.8636562 17.7142812,19.8092812 C17.7877187,19.8705312 17.7142812,19.9564687 17.7142812,20.0299062 L17.7142812,22.8852187 C17.7142812,23.3017812 17.7142812,23.3017812 18.1308437,23.3142812 C19.0483437,23.3599062 19.9614687,23.4749062 20.8620937,23.6574062 C23.2880312,24.1511562 25.6477187,24.9283437 27.8924062,25.9733437 C28.4611562,26.2086562 29.0174062,26.4745937 29.5580312,26.7699062 L29.5580312,28.1542812 C29.5020937,28.4705312 29.3717813,28.7683437 29.1783437,29.0242812 C28.8136562,29.4633437 28.2661562,29.7077187 27.6961562,29.6864687 L1.73053125,29.6864687 C1.26928125,29.6777187 0.82959375,29.4886562 0.50584375,29.1592812 C0.15240625,28.7736562 -0.02884375,28.2602187 0.00365625,27.7377187 L0.00365625,2.09021875" id="Fill-1" fill="#FFFFFF" mask="url(#mask-2)"></path>
            </g>
            <polygon id="Fill-4" fill="#FFFFFF" points="50.6152187 3.55490625 55.4624062 10.5327188 60.3095937 3.55490625 66.4620937 3.55490625 58.4720937 14.9274063 66.6752187 26.6992813 60.5761562 26.6992813 55.4624062 19.3483438 50.3486562 26.6992813 44.3299063 26.6992813 52.3195937 15.0336563 44.3299063 3.66146875"></polygon>
            <polygon id="Fill-6" fill="#FFFFFF" points="86.676625 3.55490625 86.676625 8.26896875 79.459125 8.26896875 79.459125 26.6992813 74.13225 26.6992813 74.13225 8.26896875 66.91475 8.26896875 66.91475 3.55490625"></polygon>
            <path d="M93.84125,18.1765 C94.073125,19.0599375 94.4709375,19.8915 95.013125,20.6268125 C95.540625,21.2815 96.2165625,21.8015 96.9840625,22.1449375 C98.3190625,22.6180625 99.7765625,22.6180625 101.112187,22.1449375 C101.89,21.819 102.569375,21.2955625 103.082812,20.6268125 C103.607812,19.890875 104.004062,19.0715 104.254687,18.2030625 C104.495312,17.1636875 104.62,16.1005625 104.627812,15.0336875 C104.613437,14.018375 104.479375,13.0080625 104.228125,12.0243125 C103.925625,11.1843125 103.484375,10.4011875 102.923125,9.707125 C101.113437,7.500875 97.8578125,7.1793125 95.6515625,8.989 C95.3890625,9.204 95.1484375,9.4449375 94.933125,9.707125 C94.405625,10.450875 94.0090625,11.2799375 93.76125,12.1574375 C93.5290625,13.09775 93.4303125,14.0661875 93.4684375,15.0336875 C93.431875,16.0943125 93.5578125,17.154 93.84125,18.1765 L93.84125,18.1765 Z M88.7809375,10.45275 C89.2634375,8.9818125 90.0228125,7.6168125 91.018125,6.4311875 C92.078125,5.24025 93.413125,4.3261875 94.90625,3.7680625 C96.2509375,3.3415 97.6509375,3.1174375 99.06125,3.102125 C100.462812,3.1155625 101.854687,3.339625 103.189375,3.7680625 C104.682187,4.327125 106.016875,5.2411875 107.077812,6.4311875 C108.0875,7.607125 108.848438,8.97525 109.315312,10.45275 C109.74125,11.943375 109.965312,13.4836875 109.980937,15.0336875 C109.980937,16.6411875 109.738437,18.2393125 109.261875,19.7743125 C108.814688,21.249625 108.071562,22.6180625 107.077812,23.7961875 C106.556875,24.3549375 105.976562,24.85525 105.346563,25.28775 C104.660937,25.73775 103.92875,26.11275 103.162813,26.4061875 C100.465937,27.305875 97.55,27.305875 94.853125,26.4061875 C94.0871875,26.11275 93.3546875,25.7380625 92.669375,25.28775 C92.04375,24.86025 91.4715625,24.3593125 90.9646875,23.7961875 C89.97,22.6143125 89.21875,21.24775 88.754375,19.7743125 C87.8546875,16.6961875 87.8546875,13.424625 88.754375,10.3461875 L88.7809375,10.45275 Z" id="Fill-8" fill="#FFFFFF"></path>
            <polygon id="Fill-10" fill="#FFFFFF" points="118.903188 3.55490625 118.903188 12.1039688 126.626937 3.55490625 133.098813 3.55490625 124.549125 13.2227188 134.243812 26.6992813 127.745375 26.6992813 120.874125 17.3508438 118.903188 19.5883438 118.903188 26.6992813 113.576313 26.6992813 113.576313 3.55490625"></polygon>
            <polygon id="Fill-12" fill="#FFFFFF" points="155.284125 3.55490625 155.284125 8.26896875 141.967563 8.26896875 141.967563 12.7164688 153.766312 12.7164688 153.766312 17.4305313 142.074125 17.4305313 142.074125 22.0383438 155.390687 22.0383438 155.390687 26.7255313 136.747563 26.7255313 136.747563 3.55490625"></polygon>
            <polygon id="Fill-14" fill="#FFFFFF" points="164.739062 3.55490625 174.673437 18.3630313 174.673437 3.55490625 180 3.55490625 180 26.6992813 174.406875 26.6992813 164.4725 11.9442813 164.4725 26.6992813 159.14625 26.6992813 159.14625 3.55490625"></polygon>
        </g>
    </g>
</svg>