<?xml version="1.0" encoding="UTF-8" standalone="no"?>
<svg width="35px" height="43px" viewBox="0 0 35 43" version="1.1" xmlns="http://www.w3.org/2000/svg" xmlns:xlink="http://www.w3.org/1999/xlink">
    <!-- Generator: Sketch 47 (45396) - http://www.bohemiancoding.com/sketch -->
    <title>Group 18</title>
    <desc>Created with Sketch.</desc>
    <defs></defs>
    <g id="Page-1" stroke="none" stroke-width="1" fill="none" fill-rule="evenodd">
        <g id="Group-18">
            <g id="Group-15">
                <g id="奖牌勋章-copy-3" fill-rule="nonzero">
                    <polygon id="Shape" fill="#FF6858" points="28.6131387 43 17.3229079 39.1373768 6.38686131 43 6.38686131 24.3918129 28.6131387 24.3918129"></polygon>
                    <path d="M6.38686131,32.6814844 C9.41926109,35.1942287 13.3152883,36.7134503 17.5703517,36.7134503 C21.7623411,36.7134503 25.6049981,35.2472809 28.6131387,32.8020575 L28.6131387,27.6608187 L6.38686131,27.6608187 L6.38686131,32.6814844 Z" id="Shape" fill="#F7554D"></path>
                    <path d="M0,17.2251462 C5.5264435e-15,26.7383318 7.83501688,34.4502924 17.5,34.4502924 C27.1649831,34.4502924 35,26.7383318 35,17.2251462 C35,7.71196064 27.1649831,3.39977847e-16 17.5,0 C7.83501688,-3.39977847e-16 5.5264435e-15,7.71196064 0,17.2251462 Z" id="Shape" fill="#E29161"></path>
                    <path d="M3.57664234,17.2251461 C3.57664223,22.1213561 6.25476576,26.6456407 10.6021897,29.0937458 C14.9496136,31.5418508 20.3058608,31.5418508 24.6532848,29.0937458 C29.0007087,26.6456407 31.6788322,22.1213561 31.6788321,17.2251461 C31.6788321,9.65626127 25.3879427,3.52046784 17.6277372,3.52046784 C9.8675318,3.52046784 3.57664234,9.65626127 3.57664234,17.2251461 L3.57664234,17.2251461 Z" id="Shape" fill="#CA7441"></path>
                    <path d="M5.3649635,17.3508771 C5.36496344,21.6631355 7.70223489,25.6478265 11.4963503,27.8039557 C15.2904657,29.9600849 19.9650087,29.9600849 23.7591241,27.8039557 C27.5532396,25.6478265 29.890511,21.6631355 29.8905109,17.3508771 C29.8905109,10.6847033 24.4002801,5.28070175 17.6277372,5.28070175 C10.8551943,5.28070175 5.3649635,10.6847033 5.3649635,17.3508771 Z" id="Shape" fill="#F2A476"></path>
                </g>
                <text id="3" font-family="PingFangSC-Semibold, PingFang SC" font-size="20" font-weight="500" letter-spacing="0.24000001" fill="#CA7441">
                    <tspan x="12.38" y="25">3</tspan>
                </text>
                <text id="3" font-family="PingFangSC-Semibold, PingFang SC" font-size="20" font-weight="500" letter-spacing="0.24000001" fill="#FFFFFF">
                    <tspan x="11.38" y="25">3</tspan>
                </text>
            </g>
        </g>
    </g>
</svg>