<?xml version="1.0" encoding="UTF-8" standalone="no"?>
<svg width="30px" height="29px" viewBox="0 0 30 29" version="1.1" xmlns="http://www.w3.org/2000/svg" xmlns:xlink="http://www.w3.org/1999/xlink">
    <!-- Generator: Sketch 47 (45396) - http://www.bohemiancoding.com/sketch -->
    <title>reddit</title>
    <desc>Created with Sketch.</desc>
    <defs></defs>
    <g id="Page-1" stroke="none" stroke-width="1" fill="none" fill-rule="evenodd">
        <g id="reddit" fill-rule="nonzero" fill="#FF4200">
            <path d="M20.5483272,22.4826309 C20.8457249,22.7790644 20.8457249,23.0662344 20.5483272,23.3441408 C19.3959108,24.4928208 17.5464684,25.0671607 15,25.0671607 C12.4535316,25.0671607 10.6040892,24.4928208 9.45167284,23.3441408 C9.15427508,23.0662344 9.15427508,22.7790644 9.45167284,22.4826309 C9.56319699,22.3714683 9.7026022,22.315887 9.86988848,22.315887 C10.0371747,22.3158869 10.1765799,22.3714682 10.2881041,22.4826309 C11.1802974,23.3904586 12.7509293,23.8443724 15,23.8443724 C17.2304833,23.8443724 18.8011153,23.3904586 19.7118959,22.4826309 C19.8234201,22.3714683 19.9628253,22.315887 20.1301115,22.315887 C20.2973978,22.3158869 20.436803,22.3714682 20.5483272,22.4826309 L20.5483272,22.4826309 Z M11.9888476,17.4525243 C11.9888476,18.1380268 11.7472119,18.7216304 11.2639405,19.2033349 C10.7806691,19.6850394 10.1951673,19.9258916 9.50743492,19.9258916 C8.81970258,19.9258916 8.22955388,19.6850394 7.73698883,19.2033349 C7.24442378,18.7216304 6.99814125,18.1380268 6.99814125,17.4525243 C6.99814125,16.7484946 7.24442378,16.1556276 7.73698883,15.6739231 C8.22955388,15.1922186 8.81970258,14.9513664 9.50743492,14.9513664 C10.1951673,14.9513663 10.7806691,15.1968504 11.2639405,15.6878184 C11.7472119,16.1787865 11.9888476,16.7670218 11.9888476,17.4525243 L11.9888476,17.4525243 Z M23.0018587,17.4525243 C23.0018587,18.1380268 22.7555762,18.7216304 22.2630112,19.2033349 C21.7704461,19.6850394 21.1802974,19.9258916 20.4925651,19.9258916 C19.8048327,19.9258916 19.2193309,19.6850394 18.7360595,19.2033349 C18.2527881,18.7216304 18.0111524,18.1380268 18.0111524,17.4525243 C18.0111524,16.7670217 18.2527881,16.1787865 18.7360595,15.6878184 C19.2193309,15.1968504 19.8048327,14.9513664 20.4925651,14.9513664 C21.1802974,14.9513664 21.7704461,15.1922186 22.2630112,15.6739231 C22.7555762,16.1556276 23.0018587,16.7484947 23.0018587,17.4525243 L23.0018587,17.4525243 Z M30,14.1176471 C30,13.2098194 29.6747212,12.4316813 29.0241636,11.783233 C28.3736059,11.1347846 27.5836431,10.8105604 26.6542751,10.8105604 C25.7249071,10.8105604 24.9256506,11.1440482 24.2565056,11.8110236 C21.8401487,10.143585 18.9498142,9.25428439 15.5855019,9.14312182 L17.3420074,1.2783696 L22.9182156,2.52894859 C22.9182156,3.21445113 23.1598513,3.79805465 23.6431227,4.27975915 C24.1263941,4.76146365 24.7118959,5.00231588 25.3996283,5.00231585 C26.0873606,5.00231582 26.6775093,4.7568318 27.1700743,4.2658638 C27.6626394,3.77489579 27.9089219,3.1866605 27.908922,2.50115793 C27.908922,1.81565535 27.6626395,1.22742006 27.1700743,0.736452055 C26.6775092,0.245484051 26.0873605,3.24224219e-08 25.3996283,0 C24.3959108,0 23.6524164,0.463177388 23.169145,1.38953216 L17.0074349,0.0277906161 C16.6542751,-0.0648448681 16.4219331,0.0833718968 16.3104089,0.472440911 L14.3866171,9.14312182 C11.0408922,9.2728115 8.16914496,10.1713756 5.77137546,11.8388143 C5.12081784,11.1533117 4.31226765,10.8105604 3.34572488,10.8105604 C2.41635684,10.8105604 1.62639402,11.1347846 0.975836433,11.783233 C0.325278843,12.4316813 3.2527881e-08,13.2098194 0,14.1176471 C0,14.7660954 0.171933076,15.3589625 0.515799229,15.8962482 C0.859665382,16.433534 1.31970255,16.8411301 1.89591074,17.1190366 C1.78438659,17.6192682 1.72862452,18.1380269 1.72862452,18.6753127 C1.72862452,21.3061603 3.02973976,23.5572024 5.63197025,25.4284391 C8.23420073,27.2996757 11.366171,28.2352941 15.0278811,28.2352941 C18.7081785,28.2352941 21.8494424,27.2996758 24.4516729,25.4284391 C27.0539034,23.5572024 28.3550186,21.3061602 28.3550186,18.6753127 C28.3550186,18.0824456 28.2899629,17.5544234 28.1598513,17.0912459 C28.7174721,16.8133395 29.1635688,16.4103752 29.4981413,15.8823529 C29.8327138,15.3543307 30,14.7660954 30,14.1176471 L30,14.1176471 Z" id="Shape"></path>
        </g>
    </g>
</svg>