<?xml version="1.0" encoding="UTF-8"?>
<svg width="30px" height="28px" viewBox="0 0 30 28" version="1.1" xmlns="http://www.w3.org/2000/svg" xmlns:xlink="http://www.w3.org/1999/xlink">
    <!-- Generator: Sketch 49.3 (51167) - http://www.bohemiancoding.com/sketch -->
    <title>项目详情-流通量</title>
    <desc>Created with Sketch.</desc>
    <defs>
        <linearGradient x1="50%" y1="0.925758671%" x2="50%" y2="97.6268967%" id="linearGradient-1">
            <stop stop-color="#F9BF5A" offset="0%"></stop>
            <stop stop-color="#EB7430" offset="100%"></stop>
        </linearGradient>
        <path d="M13.6475246,23.932937 C12.5048698,23.7944031 11.2967088,23.435065 10.2648064,22.9268307 C9.22796237,22.4161618 8.17796273,21.7254529 8.2368128,21.5927773 C8.26048969,21.5394 8.58660433,21.2216012 8.96151214,20.8865594 C9.53389626,20.3750381 9.68107322,20.3037518 9.87966502,20.4418367 C10.48219,20.8607861 12.1014015,21.5991867 12.8353917,21.7897218 C13.2916645,21.9081637 14.2355249,22.0005408 14.9894401,22.0005408 C15.7433552,22.0005408 16.6872164,21.9081637 17.1434889,21.7897218 C17.8774787,21.5991867 19.4966907,20.8607861 20.0992151,20.4418367 C20.2978074,20.3037518 20.4449845,20.3750381 21.017368,20.8865594 C21.3922767,21.2216012 21.7183905,21.5394 21.7420675,21.5927773 C21.8013703,21.7264726 20.7482179,22.4174868 19.6930921,22.9371903 C17.9992921,23.7714747 15.5895165,24.1683812 13.6475246,23.932937 Z M5.06760923,20.8260915 C3.76120495,20.3700282 3.0948908,19.5192483 3.00883714,18.1973576 C2.94289779,17.1844493 3.24258447,16.4777009 4.02179552,15.8085071 C4.69055378,15.2341718 5.39272052,15.0314492 6.40293619,15.1210492 C7.44893593,15.2138228 8.19506976,15.6710605 8.71410343,16.5373536 C9.44879384,17.7635899 9.31205022,18.9500942 8.31397649,20.0091951 C7.4696037,20.9051964 6.20543684,21.2233047 5.06760923,20.8260914 Z M22.9147875,20.8227203 C21.6358612,20.4166257 20.6720733,19.0228243 20.8146483,17.7855596 C20.9084906,16.9712082 21.5136268,15.9887985 22.1918028,15.549818 C22.8558533,15.1199825 24.1523177,14.9629539 24.9393894,15.2170296 C25.6276679,15.4392141 26.3753057,16.0910765 26.7368164,16.7841964 C27.1676617,17.6102544 27.0587801,18.8787803 26.4888826,19.6727454 C25.707615,20.7611843 24.2241723,21.2384863 22.9147874,20.8227202 Z M4.53662291,13.529582 C4.53662291,11.8129571 5.58408124,9.22485747 6.90865817,7.66866794 C7.68202074,6.76007662 8.78550419,5.88288289 9.91542015,5.27849797 L10.6758854,4.87173003 L10.8405487,5.5899246 C10.9311137,5.98493165 11.0447512,6.43246766 11.0930766,6.58444915 C11.1642709,6.80835171 11.0437433,6.93942014 10.4578093,7.27527407 C9.49685034,7.82609021 8.02936319,9.36399968 7.51652691,10.3577039 C7.06451727,11.2335464 6.72642598,12.3084718 6.58957601,13.304847 L6.50151695,13.945985 L5.70880679,14.0428608 C5.2728161,14.0961427 4.83071489,14.1717853 4.72635975,14.2109537 C4.58185775,14.2651917 4.53662291,14.102747 4.53662291,13.529582 Z M24.3738835,14.0794662 L23.5173924,13.9447954 L23.2930396,12.7824114 C22.8517005,10.4958118 21.3787897,8.34734123 19.5175526,7.27527407 C18.935034,6.93974524 18.8146783,6.80813507 18.8858041,6.58444915 C18.9341286,6.43246766 19.0478934,5.98431129 19.1386125,5.58854627 L19.303558,4.86897336 L20.289407,5.40330753 C23.0992684,6.92626354 25.2149568,10.112504 25.4085345,13.1127452 C25.4494587,13.7470261 25.4262576,14.2440746 25.356228,14.2333724 C25.2870092,14.2227889 24.8449553,14.1535351 24.3738835,14.0794662 Z M13.6475246,7.63507464 C11.1108343,6.48631112 11.3964147,2.91782528 14.0862489,2.15297098 C14.5917282,2.00923795 15.06423,1.96570742 15.4537218,2.02698869 C17.9922648,2.42639423 18.9892361,5.3938316 17.1565041,7.09523849 C16.2887931,7.90077392 14.755221,8.13670502 13.6475247,7.63507464 Z" id="path-2"></path>
        <filter x="-20.8%" y="-18.2%" width="141.7%" height="145.5%" filterUnits="objectBoundingBox" id="filter-3">
            <feOffset dx="0" dy="1" in="SourceAlpha" result="shadowOffsetOuter1"></feOffset>
            <feGaussianBlur stdDeviation="1.5" in="shadowOffsetOuter1" result="shadowBlurOuter1"></feGaussianBlur>
            <feColorMatrix values="0 0 0 0 0.854512117   0 0 0 0 0.575404576   0 0 0 0 0.186469352  0 0 0 0.2 0" type="matrix" in="shadowBlurOuter1"></feColorMatrix>
        </filter>
    </defs>
    <g id="Page-4" stroke="none" stroke-width="1" fill="none" fill-rule="evenodd">
        <g id="Shape" fill-rule="nonzero">
            <use fill="black" fill-opacity="1" filter="url(#filter-3)" xlink:href="#path-2"></use>
            <use fill="url(#linearGradient-1)" fill-rule="evenodd" xlink:href="#path-2"></use>
        </g>
    </g>
</svg>