<?xml version="1.0" encoding="UTF-8"?>
<svg width="18px" height="18px" viewBox="0 0 18 18" version="1.1" xmlns="http://www.w3.org/2000/svg" xmlns:xlink="http://www.w3.org/1999/xlink">
    <!-- Generator: Sketch 49.3 (51167) - http://www.bohemiancoding.com/sketch -->
    <title>标签管理-修改名称</title>
    <desc>Created with Sketch.</desc>
    <defs></defs>
    <g id="Page-4" stroke="none" stroke-width="1" fill="none" fill-rule="evenodd">
        <path d="M17.2946598,6.38926538 C16.9043101,6.38926538 16.5898618,6.70588235 16.5898618,7.09406343 L16.5898618,15.5299539 C16.5898618,16.1133098 16.1149363,16.5882353 15.5315804,16.5882353 L2.46787747,16.5882353 C1.88452155,16.5882353 1.4095961,16.1133098 1.4095961,15.5299539 L1.4095961,2.46841963 C1.4095961,1.8850637 1.88452155,1.41013825 2.46787747,1.41013825 L10.903768,1.41013825 C11.2941176,1.41013825 11.608566,1.09352128 11.608566,0.705340201 C11.608566,0.314990512 11.291949,0.000542152345 10.903768,0.000542152345 L2.46787747,0.000542152345 C1.10815939,0.000542152345 0,1.10870155 0,2.46841963 L0,15.5299539 C0,16.8918406 1.10815939,18 2.46787747,18 L15.5315804,18 C16.8934671,18 17.9994578,16.8918406 17.9994578,15.5321225 L17.9994578,7.09623204 C17.9994578,6.70588235 17.6828409,6.38926538 17.2946598,6.38926538 Z M8.50094877,9.49905123 C8.63973977,9.63784223 8.81973435,9.70506912 8.99972892,9.70506912 C9.1797235,9.70506912 9.35971808,9.63567362 9.49850908,9.49905123 L17.79344,1.20412036 C18.0688533,0.928706967 18.0688533,0.481973435 17.79344,0.206560043 C17.5180266,-0.0688533478 17.071293,-0.0688533478 16.7958796,0.206560043 L8.50094877,8.50149092 C8.22553538,8.77690431 8.22553538,9.22363784 8.50094877,9.49905123 Z" id="Shape" fill="#4A4A4A" fill-rule="nonzero"></path>
    </g>
</svg>