<?xml version="1.0" encoding="UTF-8"?>
<svg width="18px" height="18px" viewBox="0 0 18 18" version="1.1" xmlns="http://www.w3.org/2000/svg" xmlns:xlink="http://www.w3.org/1999/xlink">
    <!-- Generator: Sketch 49.3 (51167) - http://www.bohemiancoding.com/sketch -->
    <title>标签管理-编辑货币</title>
    <desc>Created with Sketch.</desc>
    <defs></defs>
    <g id="Page-4" stroke="none" stroke-width="1" fill="none" fill-rule="evenodd">
        <g id="Group-8" transform="translate(1.000000, 1.000000)">
            <g id="Group-9">
                <path d="M9.31767004,15.9663735 L9.31767004,16 L6.49414062,16 L6.49414062,14.6619989 C4.84875185,13.2281204 3.76470588,10.7796092 3.76470588,8 C3.76470588,5.22039083 4.84875185,2.77187955 6.49414062,1.33800108 L6.49414062,0 L9.31767004,0 L9.31767004,0.0336265099 C9.50361607,0.0113725547 9.6919689,0 9.88235294,0 C13.2610361,0 16,3.581722 16,8 C16,12.418278 13.2610361,16 9.88235294,16 C9.6919689,16 9.50361607,15.9886274 9.31767004,15.9663735 Z" id="Combined-Shape" stroke="#4A4A4A" stroke-width="1.4" fill="#FFFFFF"></path>
                <ellipse id="Oval-5" stroke="#4A4A4A" stroke-width="1.4" fill="#FFFFFF" cx="6.39998851" cy="8" rx="6.11764706" ry="8"></ellipse>
                <path d="M8.28469669,9.65055339 C8.28469669,9.88666568 8.24007599,10.138978 8.15083326,10.4074978 C8.06159053,10.6760177 7.92553398,10.9318022 7.74265953,11.1748589 C7.55978508,11.4179157 7.32936672,11.6135156 7.05139756,11.7616645 C6.77342839,11.9098134 6.46035203,11.9838867 6.11215907,11.9838867 C5.37188329,11.9838867 4.79400869,11.6424549 4.37851794,10.9595812 C3.96302719,10.2767074 3.75528493,9.36120727 3.75528493,8.21305339 C3.75528493,7.43527172 3.85037821,6.74777859 4.04056764,6.15055339 C4.23075707,5.55332818 4.50579612,5.09152724 4.86569304,4.76513672 C5.22558996,4.4387462 5.65570422,4.27555339 6.15604872,4.27555339 C6.46620379,4.27555339 6.75075217,4.34731193 7.00970239,4.49083116 C7.26865261,4.6343504 7.48809866,4.81953373 7.66804712,5.04638672 C7.84799558,5.2732397 7.98551511,5.51513543 8.08060982,5.77208116 C8.17570454,6.02902689 8.22325118,6.26860783 8.22325118,6.49083116 C8.22325118,6.71768415 8.16985264,6.90981186 8.06305396,7.06722005 C7.95625528,7.22462825 7.82678212,7.30333116 7.67463057,7.30333116 C7.57514687,7.30333116 7.49248886,7.26282231 7.42665406,7.18180339 C7.36081925,7.10078446 7.28693908,6.96999873 7.20501133,6.78944227 C7.05871177,6.43758866 6.90583102,6.17370241 6.7463645,5.99777561 C6.58689798,5.8218488 6.38427612,5.73388672 6.13849286,5.73388672 C5.78444792,5.73388672 5.49916806,5.95263453 5.28264471,6.39013672 C5.06612136,6.82763891 4.95786131,7.42601255 4.95786131,8.18527561 C4.95786131,8.54175887 4.98565781,8.86930189 5.04125164,9.1679145 C5.09684547,9.4665271 5.17730902,9.72115418 5.28264471,9.93180339 C5.38798039,10.1424526 5.5152591,10.3021732 5.66448465,10.4109701 C5.81371021,10.5197669 5.97756326,10.5741645 6.15604872,10.5741645 C6.39598,10.5741645 6.6015278,10.4862024 6.77269829,10.3102756 C6.94386877,10.1343488 7.09528655,9.86583297 7.22695615,9.50472005 C7.30010593,9.29175602 7.37910651,9.12509102 7.46396026,9.00472005 C7.548814,8.88434908 7.65268513,8.8241645 7.77557676,8.8241645 C7.92187633,8.8241645 8.04330314,8.91212658 8.13986085,9.08805339 C8.23641856,9.26398019 8.28469669,9.45147832 8.28469669,9.65055339 Z" id="c" fill="#4A4A4A"></path>
                <path d="M14.1176471,6.22222222 L15.6715683,6.22222222" id="Path-2" stroke="#4A4A4A" stroke-linecap="round" stroke-linejoin="round"></path>
                <path d="M13.7017642,8 L15.8525225,8" id="Path-3" stroke="#4A4A4A" stroke-linecap="round" stroke-linejoin="round"></path>
                <path d="M14.5298284,9.77777778 L15.8525225,9.77777778" id="Path-3-Copy" stroke="#4A4A4A" stroke-linecap="round" stroke-linejoin="round"></path>
            </g>
        </g>
    </g>
</svg>