<?xml version="1.0" encoding="UTF-8"?>
<svg width="18px" height="18px" viewBox="0 0 18 18" version="1.1" xmlns="http://www.w3.org/2000/svg" xmlns:xlink="http://www.w3.org/1999/xlink">
    <!-- Generator: Sketch 49.3 (51167) - http://www.bohemiancoding.com/sketch -->
    <title>标签管理-删除</title>
    <desc>Created with Sketch.</desc>
    <defs></defs>
    <g id="Page-4" stroke="none" stroke-width="1" fill="none" fill-rule="evenodd">
        <g id="system-delete" fill="#4A4A4A" fill-rule="nonzero">
            <path d="M15.2259486,4.15514413 L3.23010503,4.15514413 L3.23010503,17.9965207 C2.46881564,17.9965207 1.84595531,17.5367866 1.84595531,17.0737743 L1.84595531,4.15514413 L0.694779888,4.15514413 C0.311289385,4.15514413 0.000422346369,3.84797765 0.000422346369,3.46307933 C0.000422346369,3.08087598 0.312757542,2.77101453 0.694779888,2.77101453 L5.07559777,2.77101453 L5.07559777,1.38684469 L6.45974749,1.38684469 L6.45974749,2.77101453 L11.9963061,2.77101453 L11.9963061,1.38684469 L13.3804559,1.38684469 L13.3804559,2.77101453 L17.2998905,2.77101453 C17.6833609,2.77101453 17.994248,3.07818101 17.994248,3.46305922 C17.994248,3.84532291 17.6819128,4.15514413 17.2998905,4.15514413 L16.6101385,4.15514413 L16.6101385,17.0737743 C16.6101385,17.5367866 15.9872782,17.9965207 15.2259687,17.9965207 L15.2259687,4.15514413 L15.2259486,4.15514413 Z M11.9963061,6.69441117 C11.9963061,6.31124246 12.3034726,6.00061676 12.6883508,6.00061676 C13.0705944,6.00061676 13.3804358,6.30605363 13.3804358,6.69441117 L13.3804358,13.6116603 C13.3804358,13.9948291 13.0732492,14.3054547 12.6883508,14.3054547 C12.3061676,14.3054547 11.9963061,14.0000179 11.9963061,13.6116603 L11.9963061,6.69441117 Z M5.07561788,6.69441117 C5.07561788,6.31124246 5.38278436,6.00061676 5.76768268,6.00061676 C6.14992626,6.00061676 6.4597676,6.30605363 6.4597676,6.69441117 L6.4597676,13.6116603 C6.4597676,13.9948291 6.15258101,14.3054547 5.76768268,14.3054547 C5.38547933,14.3054547 5.07563799,14.0000179 5.07563799,13.6116603 L5.07563799,6.69441117 L5.07561788,6.69441117 Z M8.30524022,6.69441117 C8.30524022,6.31124246 8.61242682,6.00061676 8.99732514,6.00061676 C9.37950838,6.00061676 9.68938994,6.30605363 9.73047821,6.69441117 L9.73047821,13.6116603 C9.68941006,13.9948291 9.38222346,14.3054547 8.99732514,14.3054547 C8.61512179,14.3054547 8.30524022,14.0000179 8.30524022,13.6116603 L8.30524022,6.69441117 Z M3.23010503,16.6123911 L15.2259486,16.6123911 L15.2259486,17.9965207 L3.23010503,17.9965207 L3.23010503,16.6123911 Z M13.3804559,1.38682458 L5.07561788,1.38682458 C5.07561788,0.625595531 5.5427933,0.00269497207 6.05264581,0.00269497207 L12.4034078,0.00269497207 C12.9132804,0.0027150838 13.3804559,0.625575419 13.3804559,1.38682458 Z" id="Shape"></path>
        </g>
    </g>
</svg>