<?xml version="1.0" encoding="UTF-8"?>
<svg width="14px" height="14px" viewBox="0 0 14 14" version="1.1" xmlns="http://www.w3.org/2000/svg" xmlns:xlink="http://www.w3.org/1999/xlink">
    <!-- Generator: Sketch 49.3 (51167) - http://www.bohemiancoding.com/sketch -->
    <title>标签管理-编辑货币-删除</title>
    <desc>Created with Sketch.</desc>
    <defs></defs>
    <g id="Page-4" stroke="none" stroke-width="1" fill="none" fill-rule="evenodd">
        <g id="Group-12">
            <circle id="Oval-10" fill="#FF6767" opacity="0.900000036" cx="7" cy="7" r="7"></circle>
            <path d="M6.5,6.5 L6.5,3.44444444 C6.5,3.19898456 6.72385763,3 7,3 C7.27614237,3 7.5,3.19898456 7.5,3.44444444 L7.5,6.5 L10.5555556,6.5 C10.8010154,6.5 11,6.72385763 11,7 C11,7.27614237 10.8010154,7.5 10.5555556,7.5 L7.5,7.5 L7.5,10.5555556 C7.5,10.8010154 7.27614237,11 7,11 C6.72385763,11 6.5,10.8010154 6.5,10.5555556 L6.5,7.5 L3.44444444,7.5 C3.19898456,7.5 3,7.27614237 3,7 C3,6.72385763 3.19898456,6.5 3.44444444,6.5 L6.5,6.5 Z" id="Combined-Shape" fill="#FFFFFF" fill-rule="nonzero" transform="translate(7.000000, 7.000000) rotate(-315.000000) translate(-7.000000, -7.000000) "></path>
        </g>
    </g>
</svg>