<?xml version="1.0" encoding="UTF-8"?>
<svg width="123px" height="24px" viewBox="0 0 123 24" version="1.1" xmlns="http://www.w3.org/2000/svg" xmlns:xlink="http://www.w3.org/1999/xlink">
    <!-- Generator: Sketch 49.3 (51167) - http://www.bohemiancoding.com/sketch -->
    <title>顶部logo</title>
    <desc>Created with Sketch.</desc>
    <defs>
        <polygon id="path-1" points="23.2969704 0.101970443 0 0.101970443 0 23.3990148 23.2969704 23.3990148"></polygon>
    </defs>
    <g id="Page-4" stroke="none" stroke-width="1" fill="none" fill-rule="evenodd">
        <g id="Page-1-Copy">
            <g id="Group-3" transform="translate(0.000000, 0.144236)">
                <mask id="mask-2" fill="white">
                    <use xlink:href="#path-1"></use>
                </mask>
                <g id="Clip-2"></g>
                <path d="M0.0028817734,1.50263547 C-0.00992610837,0.823325123 0.466428571,0.23317734 1.13243842,0.101896552 L1.29647783,0.101896552 L22.0033744,0.101896552 C22.3474631,0.143275862 22.6671675,0.299926108 22.9107635,0.546231527 C23.1023892,0.762241379 23.2324384,1.02578818 23.2873645,1.30928571 L23.2873645,18.6945074 L23.1134729,18.6945074 C20.8664286,18.0472167 18.5661823,17.6011576 16.2403202,17.3615025 C16.0280049,17.3615025 16.0181527,17.3615025 16.0181527,17.1102709 L16.0181527,14.6282512 L16.0181527,7.5679064 C16.0181527,7.35559113 16.0181527,7.34598522 15.7962315,7.34598522 L14.2225862,7.34598522 C13.9910591,7.34598522 13.9910591,7.34598522 13.9910591,7.57751232 L13.9910591,10.3592857 C13.9910591,10.4671675 13.9644581,10.5730788 13.9139655,10.668399 L12.3979557,13.6238177 C12.3979557,13.6238177 12.3979557,13.7203695 12.2920443,13.7494335 C12.1858867,13.7782512 12.2920443,13.6334236 12.2920443,13.5851478 L12.2920443,5.65559113 C12.2920443,5.42381773 12.2920443,5.42381773 12.5235714,5.42381773 L16.915936,5.42381773 C17.1863793,5.42381773 17.1863793,5.42381773 17.1863793,5.69426108 L17.1863793,16.1637192 L17.1863793,16.3280049 C17.1863793,16.3765271 17.1863793,16.4824384 17.3408128,16.4824384 L18.9528818,16.4824384 C19.0686453,16.4824384 19.1171675,16.4344089 19.1073153,16.318399 C19.0974631,16.2026355 19.1073153,16.2413054 19.1073153,16.2026355 L19.1073153,4.61248768 C19.1073153,4.33243842 19.1073153,4.33243842 18.8275123,4.33243842 L3.08243842,4.33243842 C2.96667488,4.33243842 2.92800493,4.33243842 2.92800493,4.48687192 C2.89918719,4.67997537 2.89918719,4.9312069 2.89918719,5.20165025 C2.89918719,5.4720936 2.89918719,5.43342365 3.1403202,5.43342365 L7.91889163,5.43342365 C8.10238916,5.43342365 8.11199507,5.43342365 8.04426108,5.61692118 L6.59647783,9.29697044 C6.59647783,9.29697044 6.59647783,9.40288177 6.52874384,9.41273399 C6.46125616,9.4223399 6.47086207,9.35485222 6.45165025,9.31618227 C6.13317734,8.64007389 5.82406404,7.96396552 5.48637931,7.28785714 C5.45460591,7.18293103 5.3541133,7.11445813 5.24475369,7.12357143 L3.58440887,7.12357143 C3.40115764,7.12357143 3.39130542,7.12357143 3.4587931,7.30706897 L5.38958128,12.3294828 C5.44549261,12.4587931 5.44549261,12.6055911 5.38958128,12.7351478 L2.79278325,19.4186453 C2.79278325,19.4186453 2.73490148,19.5058374 2.79278325,19.5634729 C2.83366995,19.5770197 2.87751232,19.5770197 2.91839901,19.5634729 C3.66248768,19.3105172 4.41987685,19.0977094 5.18687192,18.9260345 C5.29401478,18.9073153 5.38071429,18.8284975 5.4087931,18.7233251 C5.73711823,17.8349015 6.07504926,16.9558374 6.37431034,16.0674138 L6.49007389,15.7486946 C6.49007389,15.6908128 6.54795567,15.6809606 6.5770197,15.7486946 L6.5770197,15.8548522 L7.54229064,18.3179064 C7.56495074,18.4218473 7.6679064,18.4881034 7.7720936,18.4654433 C7.77603448,18.4647044 7.77972906,18.4634729 7.78366995,18.4624877 C8.35312808,18.3853941 8.92283251,18.3371182 9.50189655,18.3078079 C9.83022167,18.3078079 9.83022167,18.3078079 9.71445813,17.9991872 L7.72578818,12.7252956 C7.68761084,12.6358867 7.68761084,12.5349015 7.72578818,12.4454926 L10.1390887,6.40903941 C10.1390887,6.40903941 10.1390887,6.31224138 10.2164286,6.30263547 C10.2334236,6.36248768 10.2334236,6.42628079 10.2164286,6.486133 L10.2164286,10.7940148 L10.2164286,16.357069 C10.2164286,16.6179064 10.2164286,16.6179064 10.4770197,16.6179064 L11.2590394,16.6179064 C11.4422906,16.6179064 11.4518966,16.6179064 11.365197,16.8011576 L10.6218473,18.0762808 C10.5447537,18.2115025 10.5543596,18.2403202 10.7087931,18.2403202 L12.2243103,18.2403202 C12.3516502,18.2550985 12.4733251,18.1844089 12.5235714,18.0666749 C12.9580542,17.3033744 13.4018966,16.5405665 13.8363793,15.7775123 C13.8629803,15.7124877 13.90633,15.6560837 13.9619951,15.6132266 C14.0198768,15.6615025 13.9619951,15.7292365 13.9619951,15.7871182 L13.9619951,18.0376108 C13.9619951,18.365936 13.9619951,18.365936 14.2903202,18.3757882 C15.0134729,18.4117488 15.7331773,18.5023892 16.4430296,18.6462315 C18.3550985,19.0353941 20.2149507,19.6479557 21.9841626,20.471601 C22.4324384,20.657069 22.8708621,20.8666749 23.2969704,21.0994335 L23.2969704,22.1905665 C23.2528818,22.4398276 23.1501724,22.6745567 22.9977094,22.8762808 C22.7102709,23.2223399 22.2787438,23.4149507 21.8294828,23.398202 L1.36396552,23.398202 C1.00041872,23.3913054 0.653866995,23.2422906 0.398694581,22.9826847 C0.120123153,22.6787438 -0.0227339901,22.274064 0.0028817734,21.8622414 L0.0028817734,1.64746305" id="Fill-1" fill="#FFFFFF" mask="url(#mask-2)"></path>
            </g>
            <polygon id="Fill-4" fill="#FFFFFF" points="37.9379344 5 40.9748409 9.52235964 44.0117474 5 47.8664709 5 42.8604993 12.3705814 48 20 44.1787567 20 40.9748409 15.2358159 37.7709251 20 34 20 39.0057758 12.4394426 34 5.06906376"></polygon>
            <polygon id="Fill-6" fill="#FFFFFF" points="62 5 62 8.0552105 57.6173187 8.0552105 57.6173187 20 54.3826813 20 54.3826813 8.0552105 50 8.0552105 50 5"></polygon>
            <path d="M67.6830172,14.429803 C67.8312388,14.9824389 68.0855328,15.5026244 68.4321156,15.9626005 C68.7693098,16.3721414 69.2013898,16.6974284 69.6919993,16.9122664 C70.5453722,17.2082306 71.4770508,17.2082306 72.3308233,16.9122664 C72.8280248,16.7083756 73.2623022,16.3809383 73.5905071,15.9626005 C73.9261032,15.5022334 74.1793984,14.9896719 74.3396055,14.4464192 C74.4934204,13.7962363 74.5731245,13.1311965 74.5781185,12.4638108 C74.5689295,11.8286802 74.4832327,11.1966774 74.322626,10.5812908 C74.1292587,10.0558272 73.8471982,9.56594196 73.48843,9.13176989 C72.3316223,7.75164615 70.250527,7.55049213 68.8402244,8.68254547 C68.6724264,8.81703912 68.5186115,8.96775802 68.3809772,9.13176989 C68.043783,9.59702407 67.7902881,10.1156456 67.6318788,10.6645674 C67.4834574,11.2527816 67.4203334,11.8585894 67.4447041,12.4638108 C67.4213322,13.1272868 67.5018353,13.7901762 67.6830172,14.429803 Z M64.4483104,9.59819698 C64.7567392,8.67804932 65.242155,7.82417106 65.8783892,7.08250116 C66.5559737,6.33750802 67.4093466,5.76571455 68.3637979,5.41657843 C69.2233633,5.14974147 70.1182862,5.00957876 71.0198012,5 C71.9157229,5.00840585 72.805452,5.14856856 73.6586252,5.41657843 C74.6128766,5.766301 75.4660498,6.33809448 76.1442335,7.08250116 C76.7896567,7.81811103 77.2760713,8.67394414 77.5745121,9.59819698 C77.8467844,10.5306602 77.990012,11.4942055 78,12.4638108 C78,13.4693854 77.8449866,14.4690955 77.5403532,15.4293175 C77.2544973,16.352202 76.779469,17.2082306 76.1442335,17.9452088 C75.8112343,18.2947359 75.4402808,18.6077073 75.0375655,18.8782585 C74.599293,19.1597568 74.1312563,19.3943388 73.6416456,19.5778991 C71.9177205,20.1407003 70.0537639,20.1407003 68.3298387,19.5778991 C67.840228,19.3943388 67.3719916,19.1599523 66.9339188,18.8782585 C66.5340001,18.6108351 66.1682404,18.2974727 65.8442303,17.9452088 C65.2083956,17.2058847 64.7281736,16.3510291 64.4313309,15.4293175 C63.856223,13.5037908 63.856223,11.4572588 64.4313309,9.53153661 L64.4483104,9.59819698 Z" id="Fill-8" fill="#FFFFFF"></path>
            <polygon id="Fill-10" fill="#FFFFFF" points="84.3506411 5 84.3506411 10.5406956 89.2089331 5 93.2797871 5 87.9019747 11.2657638 94 20 89.912438 20 85.5903744 13.9412249 84.3506411 15.3913613 84.3506411 20 81 20 81 5"></polygon>
            <polygon id="Fill-12" fill="#FFFFFF" points="107.931409 5 107.931409 8.05174925 99.3599517 8.05174925 99.3599517 10.9309336 106.95444 10.9309336 106.95444 13.9826828 99.4285427 13.9826828 99.4285427 16.9656489 108 16.9656489 108 20 96 20 96 5"></polygon>
            <polygon id="Fill-14" fill="#FFFFFF" points="113.486498 5 119.679479 14.5972293 119.679479 5 123 5 123 20 119.513307 20 113.320326 10.4372013 113.320326 20 110 20 110 5"></polygon>
        </g>
    </g>
</svg>