<?xml version="1.0" encoding="UTF-8" standalone="no"?>
<svg width="16px" height="16px" viewBox="0 0 16 16" version="1.1" xmlns="http://www.w3.org/2000/svg" xmlns:xlink="http://www.w3.org/1999/xlink">
    <!-- Generator: Sketch 48.2 (47327) - http://www.bohemiancoding.com/sketch -->
    <title>Shape</title>
    <desc>Created with Sketch.</desc>
    <defs></defs>
    <g id="Page-1" stroke="none" stroke-width="1" fill="none" fill-rule="evenodd">
        <path d="M8.02305527,14.9226952 C7.61273665,14.9226444 7.203252,14.8853345 6.79953807,14.8112155 C6.66179744,14.7879099 6.5472655,14.6921155 6.49987231,14.5605214 C6.4524712,14.4288643 6.47959449,14.2815695 6.57068466,14.1759704 C6.66185484,14.0699834 6.80296293,14.0213996 6.93995737,14.048844 C8.35084698,14.3085895 9.80798179,14.0516677 11.0453898,13.3249218 L11.0482598,13.3234906 C11.7667343,12.9134679 12.3950719,12.3623161 12.89558,11.7030886 C13.3770504,11.0698355 13.7303276,10.3484857 13.9355705,9.57957702 C14.1420571,8.80929519 14.1962809,8.01957596 14.0971704,7.23310597 C13.9949986,6.41996516 13.7288926,5.63610616 13.3150011,4.9290684 C12.9214291,4.25659246 12.4452395,3.69919365 11.8598753,3.22702928 C11.7800084,3.16290415 11.7289003,3.06909594 11.7179827,2.96658749 C11.7072404,2.86418626 11.7376658,2.76171775 11.802418,2.68222127 C11.9377669,2.51571723 12.1820226,2.49001345 12.3489798,2.6246827 C13.008696,3.15689993 13.5448494,3.78334501 13.9865608,4.53925671 C14.9112732,6.12167363 15.1632588,8.00944144 14.6861317,9.77952112 C14.4550971,10.645288 14.0574114,11.4575198 13.5154033,12.1705725 C12.9523867,12.9121721 12.24566,13.5323121 11.4375459,13.9938197 C10.4019369,14.601543 9.22340204,14.9221537 8.02305527,14.9226952 Z M3.47878149,13.0976493 C3.38397598,13.0976493 3.28846254,13.0631262 3.21376613,12.9933643 C2.70309833,12.5186663 2.30878013,12.0119788 2.0085595,11.4452191 C1.08753979,9.86419468 0.837276217,7.97961809 1.31367628,6.21251687 C1.54469175,5.34675004 1.94237742,4.53451824 2.48438557,3.82144618 C3.04791868,3.07924704 3.75541075,2.45870086 4.56440498,1.99713519 C5.70999225,1.33545136 7.02865935,1.02043013 8.37606468,1.08551157 C8.47863201,1.0902543 8.57519457,1.13575708 8.64473449,1.21211575 C8.71386555,1.2880526 8.75005865,1.38879657 8.74524172,1.4918789 C8.73422094,1.70607709 8.55189971,1.8707631 8.33800854,1.85975824 C7.14070396,1.80187154 5.96999467,2.08128655 4.95296406,2.66816058 C4.23408768,3.07820264 3.6053674,3.62950913 3.10459152,4.28894944 C2.62323593,4.9222218 2.27007346,5.64357167 2.06494534,6.41246097 C1.85888371,7.17624356 1.80384601,7.97360472 1.90298195,8.75891268 C2.00572778,9.57746889 2.27458892,10.3663178 2.69303421,11.0769723 C2.95267311,11.568574 3.29636459,12.0101608 3.74454304,12.4269527 C3.81975569,12.4965421 3.86414052,12.5937702 3.86771721,12.6967744 C3.8712939,12.7997785 3.83376223,12.8999131 3.76356154,12.9746618 C3.68955982,13.0535051 3.58666148,13.0980004 3.47914502,13.0976493 L3.47878149,13.0976493 Z M8.02269174,15 C7.6104265,15 7.19421981,14.9622276 6.7851881,14.8874372 C6.59970988,14.854558 6.45257479,14.7125006 6.41300713,14.5280871 C6.37342033,14.3436929 6.44928386,14.1536512 6.60491414,14.0473741 C6.70725816,13.9768966 6.83114629,13.9502838 6.95396295,13.9729318 C8.34640806,14.2290993 9.78439043,13.9753494 11.0055351,13.2580223 L11.0098401,13.2558755 C11.7190733,12.8510941 12.3393366,12.3070211 12.833435,11.6563228 C13.3086297,11.0310768 13.6572767,10.3188944 13.8598027,9.55979149 C14.0637637,8.79883188 14.117643,8.01920849 14.0199484,7.24242818 C13.9190011,6.43969267 13.6561861,5.66585215 13.2474988,4.96788518 C12.8585762,4.30333892 12.3884901,3.75348298 11.8110279,3.2870628 C11.7152329,3.21009874 11.6539081,3.09757027 11.6407416,2.97459454 C11.6277875,2.85174267 11.6641706,2.72877714 11.7417271,2.63328931 C11.903327,2.43408016 12.1978076,2.40313505 12.3974636,2.5646105 C13.0646992,3.10293939 13.6066117,3.73621174 14.0537187,4.50040125 C14.9888014,6.10063096 15.2436569,8.00963485 14.7611725,9.79963544 C14.5275166,10.6750533 14.1252964,11.4963172 13.5771656,12.2173189 C13.007835,12.9672544 12.2931489,13.594357 11.4759656,14.061048 C10.4285513,14.6755018 9.23662315,14.9995938 8.02269174,15 Z M6.86885802,14.1200178 C6.70875056,14.1201531 6.57516185,14.2425217 6.56081188,14.4021985 C6.5464619,14.5618753 6.65603832,14.7061762 6.81356278,14.7349551 C7.58287214,14.8763063 8.37062135,14.8815415 9.14170285,14.7504277 C9.93646025,14.614856 10.7006193,14.3359071 11.3976912,13.9269009 C12.1970997,13.4705766 12.8962688,12.8572832 13.4532774,12.1238067 C13.9891247,11.418761 14.3822949,10.6156967 14.6107082,9.75971625 C15.0826119,8.00949946 14.8335729,6.14285169 13.919422,4.57807348 C13.4819965,3.83078774 12.9523102,3.21153739 12.2997881,2.68506435 C12.1661611,2.57756877 11.9709823,2.59793452 11.8624008,2.73074707 C11.8107087,2.79442044 11.7864716,2.87640703 11.7951282,2.95830968 C11.8039206,3.04029731 11.8448229,3.11531284 11.9087034,3.16660895 C12.5012618,3.64488498 12.9831914,4.20874358 13.3818145,4.89021295 C13.8009869,5.60616677 14.0704986,6.39994754 14.1740289,7.2233776 C14.2745744,8.01992409 14.2192791,8.81933301 14.0102478,9.59969134 C13.8024602,10.3782317 13.4448014,11.1086136 12.9573423,11.7498157 C12.4504246,12.4174178 11.8140127,12.9755515 11.086335,13.3907189 L11.0849,13.3914538 C9.83134355,14.1276573 8.35526678,14.3880218 6.92595179,14.1250463 C6.90710787,14.1216455 6.88799984,14.1199626 6.86885802,14.1200178 Z M3.47878149,13.1753215 C3.36093933,13.1754675 3.24735494,13.1307978 3.16059469,13.0501872 C2.6441869,12.5693776 2.2448749,12.0565591 1.94069369,11.482624 C1.00999252,9.88403823 0.757299019,7.97882512 1.23897987,6.19236387 C1.47252094,5.31698471 1.87458813,4.49570147 2.42262327,3.77469972 C2.99237471,3.02418408 3.7076923,2.3966946 4.52562178,1.9298876 C5.68485109,1.26100903 7.0175429,0.942390431 8.37966174,1.00855495 C8.6362393,1.0206042 8.83459423,1.2385158 8.82280812,1.49547627 C8.80947221,1.75239805 8.59102731,1.95007928 8.33441148,1.93743047 C7.15183954,1.8798919 5.99584376,2.15572889 4.99174726,2.7350407 C4.28182526,3.14003484 3.66093051,3.68447538 3.16635381,4.33567656 C2.69115915,4.96094187 2.34251214,5.67312425 2.14000528,6.43222716 C1.93642773,7.18639518 1.88200082,7.97374552 1.97984042,8.74920365 C2.08149565,9.55861171 2.34767813,10.3386026 2.76199063,11.0410179 C3.016961,11.52469 3.35596483,11.9598363 3.79767621,12.3704972 C3.88855939,12.4550161 3.94132904,12.5700932 3.94528963,12.6941637 C3.94989395,12.8177867 3.90481277,12.9380319 3.82031091,13.02752 C3.73231686,13.1213803 3.6080652,13.1749541 3.47916415,13.1749541 L3.47878149,13.1753215 Z M8.02701586,1.15492532 C6.81570571,1.15492532 5.63887377,1.46669731 4.60318819,2.06401531 C3.80326314,2.52053306 3.10371139,3.13421329 2.54651139,3.86819264 C2.01064503,4.57323831 1.61747483,5.37630262 1.38908062,6.23228306 C0.91809528,7.97963743 1.16566106,9.84309398 2.07644446,11.406383 L2.07787945,11.4088972 C2.37377595,11.9680947 2.7630621,12.467955 3.26726284,12.9372569 C3.32776358,12.99364 3.40783253,13.0236099 3.49007013,13.020654 C3.57227776,13.0178294 3.65005379,12.9822945 3.70646777,12.9217844 C3.76290249,12.8621712 3.79308143,12.7820169 3.79013769,12.6995598 C3.78731403,12.6171243 3.75171193,12.5393257 3.69139073,12.4837757 C3.23710876,12.0608721 2.88804082,11.6124387 2.62409693,11.1132941 C2.20117444,10.3943811 1.92936677,9.59650013 1.82541555,8.76862171 C1.72502584,7.97331468 1.78079201,7.16580215 1.98952187,6.39230797 C2.19730952,5.61376766 2.55498745,4.88338568 3.04246569,4.24220299 C3.54959383,3.57442683 4.18625442,3.01617703 4.91418086,2.60091299 C5.94376292,2.00647675 7.12922398,1.72346437 8.34195,1.78245349 C8.51300171,1.79080867 8.658587,1.65915656 8.66767532,1.48791405 C8.67538604,1.31667155 8.54311753,1.1715003 8.37212322,1.16357061 C8.25729023,1.15781847 8.14233415,1.15493582 8.02736026,1.15492532 L8.02701586,1.15492532 Z M11.9855619,2.27368778 L14.0081049,2.65920584 C14.2458362,2.71817562 14.4246943,2.95550528 14.3647114,3.19285428 L14.3647114,3.22234884 C14.3054555,3.45969784 14.0673799,3.63734211 13.8296295,3.57837234 L11.8067229,3.19285428 C11.5686281,3.13353637 11.3901527,2.89616803 11.4497529,2.65883837 L11.4497529,2.62934381 C11.5093723,2.39201415 11.7471036,2.21435053 11.9848348,2.27333965 L11.9855619,2.27368778 Z M13.9233635,3.63625903 C13.8885409,3.63625903 13.85368,3.63194606 13.8192209,3.62368758 L11.7959318,3.23782139 C11.667981,3.20534336 11.5556751,3.12782116 11.47918,3.01917484 C11.4026412,2.91414219 11.3751159,2.78063686 11.4037756,2.65344231 L11.4037756,2.62359962 L11.4052106,2.61820357 C11.4738035,2.34453274 11.7442144,2.16617286 11.9959513,2.2280244 L14.0188578,2.61387125 C14.1456351,2.64553197 14.2612767,2.72537036 14.3359731,2.83288527 C14.4138839,2.94473251 14.4401157,3.07454725 14.4113775,3.19825033 L14.4113775,3.22811236 L14.4095789,3.23350842 C14.3765805,3.36218758 14.2988102,3.47453548 14.1905218,3.54996086 C14.1120274,3.60541473 14.0187427,3.63550468 13.9229808,3.63625903 L13.9233444,3.63625903 L13.9233635,3.63625903 Z M11.8171315,3.1471909 L13.840765,3.53305709 C13.9402391,3.5578712 14.0454531,3.53665446 14.1377521,3.47335237 C14.2253827,3.4125839 14.2910864,3.31909099 14.3183705,3.21660465 L14.3183705,3.18711009 L14.3194611,3.18134656 C14.3446023,3.08210946 14.3230582,2.97710883 14.2594973,2.88576273 C14.1963699,2.79591889 14.1037108,2.73167606 13.9980599,2.70450175 L11.9740628,2.3186549 C11.7729718,2.26829173 11.5553305,2.41323089 11.4968017,2.63510733 L11.4968017,2.66460189 L11.4953667,2.67034608 C11.4702256,2.76960252 11.4917697,2.87460315 11.5553305,2.96594925 C11.6171119,3.05478106 11.712281,3.1205781 11.8171315,3.1471909 Z M1.84336258,12.0583771 L3.86594383,12.443547 C4.10403863,12.5028843 4.28251406,12.7402333 4.22289469,12.9772148 L4.22289469,13.0070575 C4.16329446,13.2444065 3.9255632,13.4220508 3.6878128,13.3627329 L1.66490628,12.9772148 C1.42717502,12.9178776 1.24868045,12.680896 1.30829982,12.443547 L1.30829982,12.4140525 C1.3377651,12.1767228 1.60565045,11.9987111 1.84338172,12.0580483 L1.84338172,12.0583964 L1.84336258,12.0583771 Z M3.77936564,13.4202328 C3.74501181,13.4202794 3.71077556,13.4161759 3.67738515,13.4080094 L1.65375157,13.0225107 C1.38083416,12.95418 1.20270313,12.687704 1.26159543,12.4381316 L1.26159543,12.4082889 C1.27739954,12.2838509 1.35209595,12.1680775 1.46630262,12.0900378 C1.57888217,12.0104682 1.7193687,11.9824074 1.8534267,12.0127137 L3.87740468,12.3985606 C4.00418193,12.4302213 4.1198236,12.5100597 4.19415648,12.6172265 C4.27208641,12.7294025 4.29866257,12.8588884 4.26956082,12.982959 L4.26956082,13.0124342 L4.26812582,13.0181784 C4.20886998,13.2548118 3.99807841,13.4202328 3.77972918,13.4202328 L3.77936564,13.4202328 Z M1.67495127,12.9318802 L3.69892925,13.3177271 C3.90002024,13.3680902 4.11766154,13.2231511 4.17619031,13.001294 L4.17619031,12.9714319 L4.1776253,12.9660359 C4.20276646,12.8667988 4.18122236,12.7617982 4.11766154,12.6700846 C4.05434902,12.5801064 3.96141079,12.5158556 3.85549705,12.4888429 L1.832227,12.1033249 C1.72368758,12.0788591 1.60997414,12.1018469 1.5190914,12.166627 C1.4316614,12.2227348 1.37188027,12.3136983 1.35460241,12.4169149 L1.35460241,12.4492719 L1.35353094,12.4546873 C1.30290423,12.6567782 1.45013498,12.8750573 1.67529567,12.9318802 L1.67495127,12.9318802 Z" id="Shape" stroke="#000000" stroke-width="0.2" fill="#000000" fill-rule="nonzero"></path>
        <path d="M7.79900056,12 L7.79900056,11.2715158 C7.30445801,11.2715158 6.70479716,11.1619482 6,10.9428096 L6,9.97445863 C6.66037717,10.2735532 7.26003802,10.4379047 7.79900056,10.467518 L7.79900056,8.35757912 L7.57245974,8.20210994 C7.02757455,7.8349047 6.66037481,7.52470976 6.47084953,7.27151582 C6.28132424,7.01832189 6.18656302,6.71108824 6.18656302,6.34980566 C6.18656302,5.90856711 6.33092582,5.54136737 6.61965575,5.24819545 C6.90838567,4.95502352 7.30149668,4.77882687 7.79900056,4.71960022 L7.79900056,4 L8.5141588,4 L8.5141588,4.71960022 C8.97908802,4.74329088 9.44993284,4.83657146 9.92670738,4.99944475 L9.92670738,5.89228207 C9.44104884,5.66425946 8.97020402,5.52952084 8.5141588,5.48806219 L8.5141588,7.47806774 L8.71404775,7.61132704 C9.27373961,7.96964828 9.65204418,8.27614161 9.84897279,8.53081621 C10.0459014,8.78549082 10.1443642,9.09642607 10.1443642,9.46363132 C10.1443642,9.9433672 9.9985208,10.3453621 9.70682954,10.669628 C9.41513828,10.9938939 9.01758534,11.1960018 8.5141588,11.2759578 L8.5141588,12 L7.79900056,12 Z M8.37645752,10.4142143 C8.79992808,10.2809544 9.01166019,10.020361 9.01166019,9.63242643 C9.01166019,9.33629317 8.79992808,9.03720306 8.37645752,8.73514714 L8.37645752,10.4142143 Z M7.93670183,7.1049417 L7.93670183,5.523598 C7.52803793,5.6598193 7.32370905,5.90264493 7.32370905,6.25208218 C7.32370905,6.56006077 7.52803793,6.84434443 7.93670183,7.1049417 Z" id="$" stroke="#000000" stroke-width="0.2" fill="#000000"></path>
    </g>
</svg>