<?xml version="1.0" encoding="UTF-8"?>
<svg width="30px" height="28px" viewBox="0 0 30 28" version="1.1" xmlns="http://www.w3.org/2000/svg" xmlns:xlink="http://www.w3.org/1999/xlink">
    <!-- Generator: Sketch 49.3 (51167) - http://www.bohemiancoding.com/sketch -->
    <title>项目详情-交易量</title>
    <desc>Created with Sketch.</desc>
    <defs>
        <linearGradient x1="50%" y1="0%" x2="50%" y2="97.915914%" id="linearGradient-1">
            <stop stop-color="#72E0D5" offset="0%"></stop>
            <stop stop-color="#4187E0" offset="100%"></stop>
        </linearGradient>
        <path d="M16.222156,18.0687265 C16.8481197,18.0687265 17.4740833,18.0648417 18.100047,18.0696976 C18.7806623,18.0750392 19.1999112,18.419327 19.2090198,18.9702361 C19.2181284,19.51896 18.8054579,19.8819433 18.1278788,19.8999103 C16.7375513,19.9370585 15.3469708,19.9618239 13.9566433,19.998972 C13.45567,20.0123259 13.020734,19.8996675 12.8132602,19.4201411 C12.6052804,18.9391579 12.8438753,18.5730183 13.1968337,18.2348004 C16.582705,14.9922307 19.9556725,11.7370355 23.3559657,8.5085481 C23.7542142,8.13026854 23.7656,7.89621109 23.4308587,7.48442538 C20.9664747,4.45430409 17.0044841,3.16358896 13.1057477,4.14983517 C9.398545,5.08752174 6.60979345,8.14410803 6.02785472,11.8781013 C5.8411283,13.0770387 5.93347944,14.2533958 6.21053288,15.4253827 C6.24772635,15.5827159 6.29832972,15.7376211 6.32616157,15.8961683 C6.43116356,16.4936947 6.15132694,16.931217 5.59848515,17.0460605 C5.10358422,17.1485214 4.64005738,16.8566779 4.47559644,16.3013985 C3.91212795,14.3978608 3.82736731,12.472714 4.3397264,10.5531516 C5.83126064,4.96320907 11.0406243,1.43292353 17.0216892,2.07512472 C20.8541352,2.48666763 23.7772387,4.39263335 25.7745536,7.57061873 C26.1457293,8.16086111 26.0670411,8.495437 25.4754877,9.06382754 C22.5415045,11.8822288 19.6060032,14.6991733 16.6684777,17.5139326 C16.506547,17.6690807 16.3215917,17.8018913 16.1475161,17.9451422 C16.1723117,17.9864179 16.1971074,18.0274508 16.222156,18.0687265 Z M15.6427831,9.08607226 C15.0837574,9.12863003 14.5342449,9.17824022 13.9834807,9.21034094 C13.2917709,9.25046684 12.8661804,8.9442941 12.8218689,8.39298862 C12.7773071,7.83633302 13.1463191,7.44528793 13.8217563,7.3810865 C15.2111842,7.24903582 16.6031156,7.138872 17.9930443,7.00998276 C18.492988,6.96377719 18.9260889,7.06786133 19.1476463,7.53599677 C19.3687031,8.00267309 19.1686755,8.38666575 18.8121809,8.73174845 C16.2716557,11.191101 13.7373892,13.6565333 11.2013703,16.1200201 C10.3168931,16.9794438 9.44117794,17.8478655 8.54243086,18.6931843 C8.29208349,18.9283464 8.26980257,19.0672063 8.53316801,19.3116095 C11.3225385,21.9034991 14.5880696,22.8550908 18.2957142,21.7284043 C22.0096175,20.5997723 24.2131751,18.0528723 24.9739808,14.3377008 C25.1301976,13.5750656 25.0979027,12.8070803 25.0891406,12.0381222 C25.0816302,11.371546 25.423855,10.9814736 26.0029085,10.9722325 C26.5779564,10.9632346 26.9337,11.3396884 26.9762591,12.0018873 C27.4056048,18.7002367 21.9570446,24.2247214 15.0539661,23.9929639 C11.4632337,23.872343 8.53917635,22.3380747 6.28329615,19.6192413 C5.85845666,19.1068458 5.90877648,18.6559767 6.45228063,18.1258285 C8.18818933,16.4320293 9.9308574,14.7447962 11.671022,13.0548881 C12.9097408,11.852084 14.1497114,10.6502526 15.385426,9.44428707 C15.4825608,9.34944404 15.6287636,9.28208118 15.6427831,9.08607226 Z" id="path-2"></path>
        <filter x="-21.7%" y="-18.2%" width="143.5%" height="145.5%" filterUnits="objectBoundingBox" id="filter-3">
            <feOffset dx="0" dy="1" in="SourceAlpha" result="shadowOffsetOuter1"></feOffset>
            <feGaussianBlur stdDeviation="1.5" in="shadowOffsetOuter1" result="shadowBlurOuter1"></feGaussianBlur>
            <feColorMatrix values="0 0 0 0 0.298039216   0 0 0 0 0.498039216   0 0 0 0 0.741176471  0 0 0 0.2 0" type="matrix" in="shadowBlurOuter1"></feColorMatrix>
        </filter>
    </defs>
    <g id="Page-4" stroke="none" stroke-width="1" fill="none" fill-rule="evenodd">
        <g id="Combined-Shape">
            <use fill="black" fill-opacity="1" filter="url(#filter-3)" xlink:href="#path-2"></use>
            <use fill="url(#linearGradient-1)" fill-rule="evenodd" xlink:href="#path-2"></use>
        </g>
    </g>
</svg>